M48
; DRILL file {KiCad (6.0.1)} date Mon May 23 21:20:42 2022
; FORMAT={-:-/ absolute / inch / decimal}
; #@! TF.CreationDate,2022-05-23T21:20:42+02:00
; #@! TF.GenerationSoftware,Kicad,Pcbnew,(6.0.1)
; #@! TF.FileFunction,Plated,1,2,PTH
FMAT,2
INCH
; #@! TA.AperFunction,Plated,PTH,ViaDrill
T1C0.0157
; #@! TA.AperFunction,Plated,PTH,ComponentDrill
T2C0.0236
; #@! TA.AperFunction,Plated,PTH,ComponentDrill
T3C0.0866
%
G90
G05
T1
X1.2457Y-2.5201
X1.4933Y-2.3768
X1.5559Y-2.5196
X1.6162Y-2.482
X1.6529Y-2.5371
X1.6532Y-2.634
X1.6685Y-2.3654
X1.7939Y-2.4396
X1.8304Y-2.4399
X1.867Y-2.4407
X1.9037Y-2.4409
X1.941Y-2.4397
X2.0995Y-2.5283
X2.174Y-2.3878
T3
X1.0754Y-2.4987
X2.2125Y-2.4985
T2
G00X1.6899Y-2.4454
M15
G01X1.6899Y-2.4021
M16
G05
G00X1.6899Y-2.6001
M15
G01X1.6899Y-2.5765
M16
G05
G00X2.03Y-2.4454
M15
G01X2.03Y-2.4021
M16
G05
G00X2.03Y-2.6001
M15
G01X2.03Y-2.5765
M16
G05
T0
M30
