%TF.GenerationSoftware,KiCad,Pcbnew,(6.0.1)*%
%TF.CreationDate,2022-05-23T21:20:42+02:00*%
%TF.ProjectId,AKBDB,414b4244-422e-46b6-9963-61645f706362,R1*%
%TF.SameCoordinates,Original*%
%TF.FileFunction,Copper,L1,Top*%
%TF.FilePolarity,Positive*%
%FSLAX46Y46*%
G04 Gerber Fmt 4.6, Leading zero omitted, Abs format (unit mm)*
G04 Created by KiCad (PCBNEW (6.0.1)) date 2022-05-23 21:20:42*
%MOMM*%
%LPD*%
G01*
G04 APERTURE LIST*
%TA.AperFunction,ComponentPad*%
%ADD10C,3.500001*%
%TD*%
%TA.AperFunction,ComponentPad*%
%ADD11C,3.500000*%
%TD*%
%TA.AperFunction,ComponentPad*%
%ADD12O,1.000000X2.100000*%
%TD*%
%TA.AperFunction,ComponentPad*%
%ADD13O,1.000000X1.600000*%
%TD*%
%TA.AperFunction,ViaPad*%
%ADD14C,0.800000*%
%TD*%
%TA.AperFunction,Conductor*%
%ADD15C,0.508000*%
%TD*%
%TA.AperFunction,Conductor*%
%ADD16C,0.254000*%
%TD*%
%TA.AperFunction,Conductor*%
%ADD17C,0.200000*%
%TD*%
G04 APERTURE END LIST*
D10*
%TO.P,MH2,1,Pin_1*%
%TO.N,GNDPWR*%
X56197500Y-63463000D03*
%TD*%
D11*
%TO.P,MH1,1,Pin_1*%
%TO.N,GNDPWR*%
X27314000Y-63467682D03*
%TD*%
D12*
%TO.P,J1,S1,SHIELD*%
%TO.N,GNDPWR*%
X51562500Y-61563000D03*
X42922500Y-61563000D03*
D13*
X42922500Y-65743000D03*
X51562500Y-65743000D03*
%TD*%
D14*
%TO.N,VCC*%
X39519080Y-63999080D03*
X31640000Y-64010000D03*
%TO.N,Net-(J1-PadA5)*%
X53327500Y-64218000D03*
X48353754Y-61997751D03*
%TO.N,Net-(J1-PadB5)*%
X45566025Y-61965912D03*
X41052500Y-63043000D03*
%TO.N,VBUS*%
X42380000Y-60080000D03*
X49302500Y-61968000D03*
%TO.N,DBus+*%
X46492500Y-61973000D03*
X41982500Y-64443000D03*
%TO.N,DBus-*%
X47422500Y-61993000D03*
X41992500Y-66903000D03*
%TO.N,GNDPWR*%
X37930000Y-60370000D03*
X55220000Y-60650000D03*
%TD*%
D15*
%TO.N,VCC*%
X31650920Y-63999080D02*
X31640000Y-64010000D01*
X39519080Y-63999080D02*
X31650920Y-63999080D01*
D16*
%TO.N,Net-(J1-PadA5)*%
X53312500Y-64233000D02*
X49353754Y-64233000D01*
X53312500Y-64233000D02*
X53327500Y-64218000D01*
X48353754Y-61997751D02*
X48353754Y-63233000D01*
X48353754Y-63233000D02*
G75*
G03*
X49353754Y-64233000I999999J-1D01*
G01*
%TO.N,Net-(J1-PadB5)*%
X45566025Y-61965912D02*
X45566025Y-62543000D01*
X41052500Y-63043000D02*
X45066025Y-63043000D01*
X45566025Y-62543000D02*
G75*
G02*
X45066025Y-63043000I-500001J1D01*
G01*
D15*
%TO.N,VBUS*%
X42380000Y-60080000D02*
X48302500Y-60080000D01*
X49302500Y-61968000D02*
X49302500Y-61080000D01*
X49302500Y-61080000D02*
G75*
G03*
X48302500Y-60080000I-999999J1D01*
G01*
D17*
%TO.N,DBus+*%
X46790000Y-62270500D02*
X46790000Y-63443000D01*
X46492500Y-61973000D02*
X46790000Y-62270500D01*
X41982500Y-64443000D02*
X45790000Y-64443000D01*
X45790000Y-64443000D02*
G75*
G03*
X46790000Y-63443000I1J999999D01*
G01*
%TO.N,DBus-*%
X43987000Y-65903000D02*
X43987000Y-65769520D01*
X47116520Y-62293480D02*
X47116520Y-63519520D01*
X47422500Y-61993000D02*
X47417000Y-61993000D01*
X41992500Y-66903000D02*
X42987000Y-66903000D01*
X47417000Y-61993000D02*
X47116520Y-62293480D01*
X45866520Y-64769520D02*
X44987000Y-64769520D01*
X43987000Y-65903000D02*
G75*
G02*
X42987000Y-66903000I-999999J-1D01*
G01*
X44987000Y-64769520D02*
G75*
G03*
X43987000Y-65769520I-1J-999999D01*
G01*
X45866520Y-64769520D02*
G75*
G03*
X47116520Y-63519520I-2J1250002D01*
G01*
%TD*%
%TA.AperFunction,Conductor*%
%TO.N,GNDPWR*%
G36*
X56637495Y-59592643D02*
G01*
X56648000Y-59595458D01*
X56657564Y-59592896D01*
X56667464Y-59592896D01*
X56667464Y-59593137D01*
X56676390Y-59592317D01*
X56837267Y-59604978D01*
X56848922Y-59606824D01*
X57027771Y-59649762D01*
X57038994Y-59653408D01*
X57208929Y-59723798D01*
X57219443Y-59729155D01*
X57376276Y-59825262D01*
X57385822Y-59832198D01*
X57525685Y-59951652D01*
X57534030Y-59959997D01*
X57653484Y-60099860D01*
X57660420Y-60109406D01*
X57756527Y-60266239D01*
X57761884Y-60276753D01*
X57832274Y-60446688D01*
X57835920Y-60457911D01*
X57878858Y-60636760D01*
X57880704Y-60648415D01*
X57893365Y-60809292D01*
X57892545Y-60818218D01*
X57892786Y-60818218D01*
X57892786Y-60828118D01*
X57890224Y-60837682D01*
X57893039Y-60848187D01*
X57895600Y-60867644D01*
X57895600Y-66072720D01*
X57893039Y-66092177D01*
X57890224Y-66102682D01*
X57892786Y-66112246D01*
X57892786Y-66122146D01*
X57892545Y-66122146D01*
X57893365Y-66131072D01*
X57880704Y-66291949D01*
X57878858Y-66303604D01*
X57835920Y-66482453D01*
X57832274Y-66493676D01*
X57761884Y-66663611D01*
X57756527Y-66674125D01*
X57660420Y-66830958D01*
X57653484Y-66840504D01*
X57534030Y-66980367D01*
X57525685Y-66988712D01*
X57385822Y-67108166D01*
X57376276Y-67115102D01*
X57219443Y-67211209D01*
X57208929Y-67216566D01*
X57038994Y-67286956D01*
X57027771Y-67290602D01*
X56848922Y-67333540D01*
X56837267Y-67335386D01*
X56676390Y-67348047D01*
X56667464Y-67347227D01*
X56667464Y-67347468D01*
X56657564Y-67347468D01*
X56648000Y-67344906D01*
X56637495Y-67347721D01*
X56618038Y-67350282D01*
X42498694Y-67350282D01*
X42450356Y-67332689D01*
X42424636Y-67288140D01*
X42433569Y-67237482D01*
X42439033Y-67229304D01*
X42472781Y-67185322D01*
X42516165Y-67157683D01*
X42532442Y-67155900D01*
X42954684Y-67155900D01*
X42969352Y-67157345D01*
X42987000Y-67160855D01*
X42994264Y-67159410D01*
X42995415Y-67159410D01*
X43000418Y-67158718D01*
X43180657Y-67144533D01*
X43180659Y-67144533D01*
X43183603Y-67144301D01*
X43191850Y-67142321D01*
X43372483Y-67098955D01*
X43372487Y-67098954D01*
X43375364Y-67098263D01*
X43378093Y-67097133D01*
X43378098Y-67097131D01*
X43554841Y-67023922D01*
X43554842Y-67023921D01*
X43557564Y-67022794D01*
X43560073Y-67021257D01*
X43560076Y-67021255D01*
X43723197Y-66921294D01*
X43723199Y-66921293D01*
X43725713Y-66919752D01*
X43875674Y-66791674D01*
X44003752Y-66641713D01*
X44005294Y-66639197D01*
X44105255Y-66476076D01*
X44105257Y-66476073D01*
X44106794Y-66473564D01*
X44107922Y-66470841D01*
X44181131Y-66294098D01*
X44181133Y-66294093D01*
X44182263Y-66291364D01*
X44228301Y-66099603D01*
X44242718Y-65916418D01*
X44243410Y-65911415D01*
X44243410Y-65910264D01*
X44244855Y-65903000D01*
X44241345Y-65885352D01*
X44239900Y-65870684D01*
X44239900Y-65801836D01*
X44241345Y-65787165D01*
X44243410Y-65776784D01*
X44244855Y-65769520D01*
X44243410Y-65762255D01*
X44243410Y-65757555D01*
X44242634Y-65741759D01*
X44253529Y-65631138D01*
X44256405Y-65616680D01*
X44294621Y-65490698D01*
X44300259Y-65477087D01*
X44362316Y-65360988D01*
X44370506Y-65348731D01*
X44454022Y-65246966D01*
X44464446Y-65236542D01*
X44566211Y-65153026D01*
X44578468Y-65144836D01*
X44588850Y-65139286D01*
X44694567Y-65082779D01*
X44708178Y-65077141D01*
X44834161Y-65038925D01*
X44848617Y-65036049D01*
X44959241Y-65025154D01*
X44975035Y-65025930D01*
X44979735Y-65025930D01*
X44987000Y-65027375D01*
X45004648Y-65023865D01*
X45019316Y-65022420D01*
X45834204Y-65022420D01*
X45848872Y-65023865D01*
X45866520Y-65027375D01*
X45873783Y-65025930D01*
X45875270Y-65025930D01*
X45879980Y-65025296D01*
X46078274Y-65011114D01*
X46078280Y-65011113D01*
X46080952Y-65010922D01*
X46291017Y-64965225D01*
X46293534Y-64964286D01*
X46293538Y-64964285D01*
X46489931Y-64891034D01*
X46489936Y-64891032D01*
X46492442Y-64890097D01*
X46681124Y-64787069D01*
X46853224Y-64658237D01*
X47005237Y-64506224D01*
X47134069Y-64334124D01*
X47224390Y-64168714D01*
X47235809Y-64147801D01*
X47235810Y-64147800D01*
X47237097Y-64145442D01*
X47238106Y-64142739D01*
X47311285Y-63946538D01*
X47311286Y-63946534D01*
X47312225Y-63944017D01*
X47357922Y-63733952D01*
X47358122Y-63731165D01*
X47372296Y-63532980D01*
X47372930Y-63528270D01*
X47372930Y-63526783D01*
X47374375Y-63519520D01*
X47370865Y-63501872D01*
X47369420Y-63487204D01*
X47369420Y-62623608D01*
X47387013Y-62575270D01*
X47434805Y-62549051D01*
X47566836Y-62531669D01*
X47571388Y-62529784D01*
X47571390Y-62529783D01*
X47652347Y-62496249D01*
X47701336Y-62475957D01*
X47816833Y-62387333D01*
X47826644Y-62374547D01*
X47870028Y-62346909D01*
X47921027Y-62353623D01*
X47945963Y-62374545D01*
X47959421Y-62392084D01*
X48042662Y-62455957D01*
X48044433Y-62457316D01*
X48072071Y-62500700D01*
X48073854Y-62516976D01*
X48073854Y-63201930D01*
X48072712Y-63214987D01*
X48069536Y-63233000D01*
X48070186Y-63236688D01*
X48085702Y-63433839D01*
X48086392Y-63436713D01*
X48130293Y-63619574D01*
X48132732Y-63629734D01*
X48133862Y-63632463D01*
X48133864Y-63632468D01*
X48179312Y-63742188D01*
X48209828Y-63815859D01*
X48315091Y-63987633D01*
X48445929Y-64140825D01*
X48599121Y-64271663D01*
X48601635Y-64273204D01*
X48601637Y-64273205D01*
X48635751Y-64294110D01*
X48770895Y-64376926D01*
X48773617Y-64378054D01*
X48773618Y-64378054D01*
X48954286Y-64452890D01*
X48954291Y-64452892D01*
X48957020Y-64454022D01*
X48959897Y-64454713D01*
X48959901Y-64454714D01*
X49106709Y-64489959D01*
X49152915Y-64501052D01*
X49155859Y-64501284D01*
X49155861Y-64501284D01*
X49343966Y-64516088D01*
X49343967Y-64516088D01*
X49350066Y-64516568D01*
X49353754Y-64517218D01*
X49371767Y-64514042D01*
X49384824Y-64512900D01*
X52819785Y-64512900D01*
X52868123Y-64530493D01*
X52879445Y-64542321D01*
X52898897Y-64567671D01*
X52933167Y-64612333D01*
X53048664Y-64700957D01*
X53099068Y-64721835D01*
X53178610Y-64754783D01*
X53178612Y-64754784D01*
X53183164Y-64756669D01*
X53327500Y-64775671D01*
X53471836Y-64756669D01*
X53476388Y-64754784D01*
X53476390Y-64754783D01*
X53555932Y-64721835D01*
X53606336Y-64700957D01*
X53721833Y-64612333D01*
X53724831Y-64608426D01*
X53807459Y-64500743D01*
X53807461Y-64500739D01*
X53810457Y-64496835D01*
X53848773Y-64404333D01*
X53864283Y-64366890D01*
X53864284Y-64366888D01*
X53866169Y-64362336D01*
X53885171Y-64218000D01*
X53866169Y-64073664D01*
X53810457Y-63939165D01*
X53807461Y-63935261D01*
X53807459Y-63935257D01*
X53724831Y-63827574D01*
X53721833Y-63823667D01*
X53606336Y-63735043D01*
X53546458Y-63710241D01*
X53476390Y-63681217D01*
X53476388Y-63681216D01*
X53471836Y-63679331D01*
X53327500Y-63660329D01*
X53183164Y-63679331D01*
X53178612Y-63681216D01*
X53178610Y-63681217D01*
X53108868Y-63710106D01*
X53048665Y-63735043D01*
X53044761Y-63738039D01*
X53044757Y-63738041D01*
X52946891Y-63813136D01*
X52933167Y-63823667D01*
X52885853Y-63885329D01*
X52856426Y-63923679D01*
X52813043Y-63951317D01*
X52796766Y-63953100D01*
X49384824Y-63953100D01*
X49371766Y-63951958D01*
X49360232Y-63949924D01*
X49360231Y-63949924D01*
X49353754Y-63948782D01*
X49347274Y-63949925D01*
X49343919Y-63949925D01*
X49327775Y-63950542D01*
X49220638Y-63939990D01*
X49206181Y-63937114D01*
X49085265Y-63900434D01*
X49071653Y-63894796D01*
X48960218Y-63835232D01*
X48947970Y-63827049D01*
X48850282Y-63746879D01*
X48839875Y-63736472D01*
X48759705Y-63638784D01*
X48751521Y-63626535D01*
X48745712Y-63615667D01*
X48691958Y-63515101D01*
X48686318Y-63501485D01*
X48684233Y-63494609D01*
X48649640Y-63380572D01*
X48646764Y-63366115D01*
X48636212Y-63258979D01*
X48636829Y-63242835D01*
X48636829Y-63239480D01*
X48637972Y-63233000D01*
X48634796Y-63214987D01*
X48633654Y-63201930D01*
X48633654Y-62516976D01*
X48651247Y-62468638D01*
X48663075Y-62457316D01*
X48664847Y-62455957D01*
X48748087Y-62392084D01*
X48754731Y-62383426D01*
X48779881Y-62350649D01*
X48823265Y-62323011D01*
X48874264Y-62329725D01*
X48899200Y-62350647D01*
X48908167Y-62362333D01*
X49023664Y-62450957D01*
X49066888Y-62468861D01*
X49153610Y-62504783D01*
X49153612Y-62504784D01*
X49158164Y-62506669D01*
X49302500Y-62525671D01*
X49446836Y-62506669D01*
X49451388Y-62504784D01*
X49451390Y-62504783D01*
X49538112Y-62468861D01*
X49581336Y-62450957D01*
X49659408Y-62391050D01*
X49708467Y-62375582D01*
X49755991Y-62395267D01*
X49762084Y-62401586D01*
X49764819Y-62405921D01*
X49768835Y-62409468D01*
X49768836Y-62409469D01*
X49823607Y-62457841D01*
X49867424Y-62496539D01*
X49872271Y-62498815D01*
X49872273Y-62498816D01*
X49914225Y-62518512D01*
X49991339Y-62554717D01*
X50025545Y-62560043D01*
X50092406Y-62570454D01*
X50092411Y-62570454D01*
X50095273Y-62570900D01*
X50166812Y-62570900D01*
X50205481Y-62565362D01*
X50262707Y-62557167D01*
X50262711Y-62557166D01*
X50268010Y-62556407D01*
X50272884Y-62554191D01*
X50272887Y-62554190D01*
X50354735Y-62516976D01*
X50392626Y-62499748D01*
X50478822Y-62425477D01*
X50492277Y-62413884D01*
X50492280Y-62413881D01*
X50496331Y-62410390D01*
X50513808Y-62383426D01*
X50567876Y-62300010D01*
X50567877Y-62300009D01*
X50570788Y-62295517D01*
X50610011Y-62164364D01*
X50610080Y-62153171D01*
X50610814Y-62032829D01*
X50610847Y-62027475D01*
X50573229Y-61895852D01*
X50500181Y-61780079D01*
X50397576Y-61689461D01*
X50392729Y-61687185D01*
X50392727Y-61687184D01*
X50339683Y-61662280D01*
X50273661Y-61631283D01*
X50227610Y-61624113D01*
X50172594Y-61615546D01*
X50172589Y-61615546D01*
X50169727Y-61615100D01*
X50098188Y-61615100D01*
X50059519Y-61620638D01*
X50002293Y-61628833D01*
X50002289Y-61628834D01*
X49996990Y-61629593D01*
X49992116Y-61631809D01*
X49992113Y-61631810D01*
X49879155Y-61683169D01*
X49872374Y-61686252D01*
X49870187Y-61688136D01*
X49820985Y-61699133D01*
X49775317Y-61675460D01*
X49771012Y-61670339D01*
X49724940Y-61610297D01*
X49709400Y-61564518D01*
X49709400Y-61117941D01*
X49710326Y-61106177D01*
X49713546Y-61085847D01*
X49714472Y-61080000D01*
X49713497Y-61073842D01*
X49712805Y-61067995D01*
X49711481Y-61051165D01*
X49696375Y-60859232D01*
X49644679Y-60643900D01*
X49635728Y-60622289D01*
X49561061Y-60442029D01*
X49561061Y-60442028D01*
X49559933Y-60439306D01*
X49444226Y-60250488D01*
X49300405Y-60082095D01*
X49132012Y-59938274D01*
X49120322Y-59931110D01*
X48958910Y-59832198D01*
X48943194Y-59822567D01*
X48933327Y-59818480D01*
X48741326Y-59738950D01*
X48741324Y-59738949D01*
X48738600Y-59737821D01*
X48735729Y-59737132D01*
X48734714Y-59736802D01*
X48694178Y-59705134D01*
X48683481Y-59654819D01*
X48707630Y-59609399D01*
X48757950Y-59590082D01*
X56618038Y-59590082D01*
X56637495Y-59592643D01*
G37*
%TD.AperFunction*%
%TA.AperFunction,Conductor*%
G36*
X41954860Y-59607675D02*
G01*
X41980580Y-59652224D01*
X41971647Y-59702882D01*
X41966184Y-59711058D01*
X41897043Y-59801165D01*
X41841331Y-59935664D01*
X41822329Y-60080000D01*
X41841331Y-60224336D01*
X41843216Y-60228888D01*
X41843217Y-60228890D01*
X41853206Y-60253004D01*
X41897043Y-60358835D01*
X41900039Y-60362739D01*
X41900041Y-60362743D01*
X41958790Y-60439306D01*
X41985667Y-60474333D01*
X42101164Y-60562957D01*
X42161042Y-60587759D01*
X42231110Y-60616783D01*
X42231112Y-60616784D01*
X42235664Y-60618669D01*
X42380000Y-60637671D01*
X42524336Y-60618669D01*
X42528888Y-60616784D01*
X42528890Y-60616783D01*
X42598958Y-60587759D01*
X42658836Y-60562957D01*
X42737703Y-60502440D01*
X42783482Y-60486900D01*
X48264559Y-60486900D01*
X48276322Y-60487826D01*
X48302500Y-60491972D01*
X48308346Y-60491046D01*
X48308350Y-60491046D01*
X48311154Y-60490602D01*
X48331335Y-60490149D01*
X48397067Y-60497555D01*
X48426059Y-60500821D01*
X48442473Y-60504567D01*
X48551838Y-60542836D01*
X48567010Y-60550142D01*
X48665121Y-60611789D01*
X48678286Y-60622289D01*
X48760211Y-60704214D01*
X48770710Y-60717378D01*
X48832358Y-60815490D01*
X48839664Y-60830662D01*
X48877932Y-60940025D01*
X48881679Y-60956443D01*
X48892351Y-61051165D01*
X48891898Y-61071346D01*
X48891454Y-61074150D01*
X48891454Y-61074154D01*
X48890528Y-61080000D01*
X48891454Y-61085847D01*
X48894674Y-61106177D01*
X48895600Y-61117941D01*
X48895600Y-61564518D01*
X48880065Y-61610291D01*
X48876376Y-61615098D01*
X48832997Y-61642740D01*
X48781996Y-61636031D01*
X48757052Y-61615102D01*
X48757051Y-61615100D01*
X48748087Y-61603418D01*
X48632590Y-61514794D01*
X48551176Y-61481071D01*
X48502644Y-61460968D01*
X48502642Y-61460967D01*
X48498090Y-61459082D01*
X48353754Y-61440080D01*
X48209418Y-61459082D01*
X48204866Y-61460967D01*
X48204864Y-61460968D01*
X48151784Y-61482955D01*
X48074919Y-61514794D01*
X48071015Y-61517790D01*
X48071011Y-61517792D01*
X47995584Y-61575669D01*
X47959421Y-61603418D01*
X47956425Y-61607323D01*
X47956423Y-61607325D01*
X47949610Y-61616204D01*
X47906226Y-61643842D01*
X47855227Y-61637128D01*
X47830290Y-61616205D01*
X47816833Y-61598667D01*
X47701336Y-61510043D01*
X47631392Y-61481071D01*
X47571390Y-61456217D01*
X47571388Y-61456216D01*
X47566836Y-61454331D01*
X47422500Y-61435329D01*
X47278164Y-61454331D01*
X47273612Y-61456216D01*
X47273610Y-61456217D01*
X47213609Y-61481071D01*
X47143665Y-61510043D01*
X47139761Y-61513039D01*
X47139757Y-61513041D01*
X47032074Y-61595669D01*
X47028167Y-61598667D01*
X47025169Y-61602574D01*
X47024833Y-61603012D01*
X47024552Y-61603191D01*
X47021681Y-61606062D01*
X47021045Y-61605426D01*
X46981450Y-61630650D01*
X46930450Y-61623936D01*
X46905513Y-61603012D01*
X46902179Y-61598667D01*
X46886833Y-61578667D01*
X46882692Y-61575489D01*
X46775243Y-61493041D01*
X46771336Y-61490043D01*
X46652268Y-61440723D01*
X46641390Y-61436217D01*
X46641388Y-61436216D01*
X46636836Y-61434331D01*
X46492500Y-61415329D01*
X46348164Y-61434331D01*
X46343612Y-61436216D01*
X46343610Y-61436217D01*
X46283857Y-61460968D01*
X46213665Y-61490043D01*
X46209761Y-61493039D01*
X46209757Y-61493041D01*
X46102309Y-61575489D01*
X46098167Y-61578667D01*
X46095169Y-61582574D01*
X46095168Y-61582575D01*
X46091643Y-61587169D01*
X46048260Y-61614809D01*
X45997260Y-61608096D01*
X45972322Y-61587170D01*
X45963359Y-61575489D01*
X45963356Y-61575486D01*
X45960358Y-61571579D01*
X45844861Y-61482955D01*
X45774205Y-61453688D01*
X45714915Y-61429129D01*
X45714913Y-61429128D01*
X45710361Y-61427243D01*
X45566025Y-61408241D01*
X45421689Y-61427243D01*
X45417137Y-61429128D01*
X45417135Y-61429129D01*
X45351740Y-61456217D01*
X45287190Y-61482955D01*
X45283286Y-61485951D01*
X45283282Y-61485953D01*
X45245696Y-61514794D01*
X45171692Y-61571579D01*
X45168694Y-61575486D01*
X45086066Y-61683169D01*
X45086064Y-61683173D01*
X45083068Y-61687077D01*
X45027356Y-61821576D01*
X45008354Y-61965912D01*
X45027356Y-62110248D01*
X45029241Y-62114800D01*
X45029242Y-62114802D01*
X45047353Y-62158525D01*
X45083068Y-62244747D01*
X45086064Y-62248651D01*
X45086066Y-62248655D01*
X45151078Y-62333380D01*
X45171692Y-62360245D01*
X45241596Y-62413884D01*
X45256704Y-62425477D01*
X45284342Y-62468861D01*
X45286125Y-62485137D01*
X45286125Y-62511929D01*
X45284983Y-62524986D01*
X45281807Y-62542999D01*
X45282950Y-62549479D01*
X45282950Y-62556055D01*
X45282009Y-62556055D01*
X45282113Y-62568329D01*
X45277215Y-62599250D01*
X45269945Y-62621625D01*
X45249495Y-62661761D01*
X45235665Y-62680795D01*
X45203820Y-62712640D01*
X45184786Y-62726470D01*
X45144650Y-62746920D01*
X45122275Y-62754190D01*
X45091354Y-62759088D01*
X45079080Y-62758984D01*
X45079080Y-62759925D01*
X45072504Y-62759925D01*
X45066024Y-62758782D01*
X45059547Y-62759924D01*
X45059546Y-62759924D01*
X45048012Y-62761958D01*
X45034954Y-62763100D01*
X41571725Y-62763100D01*
X41523387Y-62745507D01*
X41512065Y-62733679D01*
X41449831Y-62652574D01*
X41446833Y-62648667D01*
X41414176Y-62623608D01*
X41344904Y-62570454D01*
X41331336Y-62560043D01*
X41264388Y-62532312D01*
X41201390Y-62506217D01*
X41201388Y-62506216D01*
X41196836Y-62504331D01*
X41052500Y-62485329D01*
X40908164Y-62504331D01*
X40903612Y-62506216D01*
X40903610Y-62506217D01*
X40846718Y-62529783D01*
X40773665Y-62560043D01*
X40769761Y-62563039D01*
X40769757Y-62563041D01*
X40662074Y-62645669D01*
X40658167Y-62648667D01*
X40655169Y-62652574D01*
X40572541Y-62760257D01*
X40572539Y-62760261D01*
X40569543Y-62764165D01*
X40567659Y-62768714D01*
X40538393Y-62839368D01*
X40513831Y-62898664D01*
X40494829Y-63043000D01*
X40513831Y-63187336D01*
X40515716Y-63191888D01*
X40515717Y-63191890D01*
X40543508Y-63258981D01*
X40569543Y-63321835D01*
X40572539Y-63325739D01*
X40572541Y-63325743D01*
X40643401Y-63418089D01*
X40658167Y-63437333D01*
X40773664Y-63525957D01*
X40779275Y-63528281D01*
X40903610Y-63579783D01*
X40903612Y-63579784D01*
X40908164Y-63581669D01*
X41052500Y-63600671D01*
X41196836Y-63581669D01*
X41201388Y-63579784D01*
X41201390Y-63579783D01*
X41325725Y-63528281D01*
X41331336Y-63525957D01*
X41446833Y-63437333D01*
X41461599Y-63418089D01*
X41512065Y-63352321D01*
X41555449Y-63324683D01*
X41571725Y-63322900D01*
X45034956Y-63322900D01*
X45048013Y-63324042D01*
X45066026Y-63327218D01*
X45072504Y-63326076D01*
X45073163Y-63326076D01*
X45075869Y-63325705D01*
X45215240Y-63311978D01*
X45215242Y-63311978D01*
X45218913Y-63311616D01*
X45365924Y-63267020D01*
X45369176Y-63265282D01*
X45369178Y-63265281D01*
X45498153Y-63196343D01*
X45498157Y-63196340D01*
X45501411Y-63194601D01*
X45504715Y-63191890D01*
X45617311Y-63099484D01*
X45620166Y-63097141D01*
X45717626Y-62978386D01*
X45719365Y-62975132D01*
X45719368Y-62975128D01*
X45788306Y-62846153D01*
X45788307Y-62846151D01*
X45790045Y-62842899D01*
X45834641Y-62695888D01*
X45836128Y-62680795D01*
X45843509Y-62605855D01*
X45844378Y-62600743D01*
X45845350Y-62598308D01*
X45845925Y-62592444D01*
X45845925Y-62585018D01*
X45846287Y-62577647D01*
X45848730Y-62552844D01*
X45849101Y-62550138D01*
X45849101Y-62549479D01*
X45850243Y-62543001D01*
X45847067Y-62524987D01*
X45845925Y-62511931D01*
X45845925Y-62485137D01*
X45863518Y-62436799D01*
X45875346Y-62425477D01*
X45890455Y-62413884D01*
X45960358Y-62360245D01*
X45966881Y-62351743D01*
X46010265Y-62324103D01*
X46061265Y-62330816D01*
X46086203Y-62351742D01*
X46095166Y-62363423D01*
X46095169Y-62363426D01*
X46098167Y-62367333D01*
X46213664Y-62455957D01*
X46244817Y-62468861D01*
X46343610Y-62509783D01*
X46343612Y-62509784D01*
X46348164Y-62511669D01*
X46426020Y-62521919D01*
X46471716Y-62527935D01*
X46517343Y-62551688D01*
X46537100Y-62602492D01*
X46537100Y-63410684D01*
X46535655Y-63425352D01*
X46532145Y-63443000D01*
X46533590Y-63450265D01*
X46533590Y-63454965D01*
X46534366Y-63470759D01*
X46528238Y-63532980D01*
X46523471Y-63581382D01*
X46520595Y-63595839D01*
X46482379Y-63721822D01*
X46476741Y-63735433D01*
X46476130Y-63736576D01*
X46414684Y-63851532D01*
X46406494Y-63863789D01*
X46322978Y-63965554D01*
X46312554Y-63975978D01*
X46210789Y-64059494D01*
X46198532Y-64067684D01*
X46082433Y-64129741D01*
X46068822Y-64135379D01*
X45942840Y-64173595D01*
X45928383Y-64176471D01*
X45817759Y-64187366D01*
X45801965Y-64186590D01*
X45797265Y-64186590D01*
X45790000Y-64185145D01*
X45772352Y-64188655D01*
X45757684Y-64190100D01*
X42522442Y-64190100D01*
X42474104Y-64172507D01*
X42462782Y-64160679D01*
X42452901Y-64147801D01*
X42376833Y-64048667D01*
X42261336Y-63960043D01*
X42173546Y-63923679D01*
X42131390Y-63906217D01*
X42131388Y-63906216D01*
X42126836Y-63904331D01*
X41982500Y-63885329D01*
X41838164Y-63904331D01*
X41833612Y-63906216D01*
X41833610Y-63906217D01*
X41791454Y-63923679D01*
X41703665Y-63960043D01*
X41699761Y-63963039D01*
X41699757Y-63963041D01*
X41644924Y-64005116D01*
X41588167Y-64048667D01*
X41585169Y-64052574D01*
X41502541Y-64160257D01*
X41502539Y-64160261D01*
X41499543Y-64164165D01*
X41474606Y-64224368D01*
X41446284Y-64292743D01*
X41443831Y-64298664D01*
X41424829Y-64443000D01*
X41443831Y-64587336D01*
X41499543Y-64721835D01*
X41502539Y-64725739D01*
X41502541Y-64725743D01*
X41566196Y-64808700D01*
X41588167Y-64837333D01*
X41703664Y-64925957D01*
X41763542Y-64950759D01*
X41833610Y-64979783D01*
X41833612Y-64979784D01*
X41838164Y-64981669D01*
X41982500Y-65000671D01*
X42126836Y-64981669D01*
X42131388Y-64979784D01*
X42131390Y-64979783D01*
X42201458Y-64950759D01*
X42261336Y-64925957D01*
X42376833Y-64837333D01*
X42462782Y-64725321D01*
X42506165Y-64697683D01*
X42522442Y-64695900D01*
X44111032Y-64695900D01*
X44159370Y-64713493D01*
X44185090Y-64758042D01*
X44176157Y-64808700D01*
X44159871Y-64828282D01*
X44098326Y-64880846D01*
X43970248Y-65030807D01*
X43968707Y-65033321D01*
X43968706Y-65033323D01*
X43941856Y-65077139D01*
X43867206Y-65198956D01*
X43866079Y-65201678D01*
X43866078Y-65201679D01*
X43800091Y-65360988D01*
X43791737Y-65381156D01*
X43745699Y-65572917D01*
X43745467Y-65575861D01*
X43745467Y-65575863D01*
X43731282Y-65756102D01*
X43730590Y-65761105D01*
X43730590Y-65762256D01*
X43729145Y-65769520D01*
X43730590Y-65776784D01*
X43732655Y-65787165D01*
X43734100Y-65801836D01*
X43734100Y-65870684D01*
X43732655Y-65885352D01*
X43729145Y-65903000D01*
X43730590Y-65910265D01*
X43730590Y-65914965D01*
X43731366Y-65930761D01*
X43720471Y-66041382D01*
X43717595Y-66055839D01*
X43679379Y-66181822D01*
X43673741Y-66195433D01*
X43624004Y-66288483D01*
X43611684Y-66311532D01*
X43603494Y-66323789D01*
X43519978Y-66425554D01*
X43509554Y-66435978D01*
X43407789Y-66519494D01*
X43395532Y-66527684D01*
X43279433Y-66589741D01*
X43265822Y-66595379D01*
X43139840Y-66633595D01*
X43125383Y-66636471D01*
X43014759Y-66647366D01*
X42998965Y-66646590D01*
X42994265Y-66646590D01*
X42987000Y-66645145D01*
X42969352Y-66648655D01*
X42954684Y-66650100D01*
X42532442Y-66650100D01*
X42484104Y-66632507D01*
X42472782Y-66620679D01*
X42389831Y-66512574D01*
X42386833Y-66508667D01*
X42271336Y-66420043D01*
X42211458Y-66395241D01*
X42141390Y-66366217D01*
X42141388Y-66366216D01*
X42136836Y-66364331D01*
X41992500Y-66345329D01*
X41848164Y-66364331D01*
X41843612Y-66366216D01*
X41843610Y-66366217D01*
X41773868Y-66395106D01*
X41713665Y-66420043D01*
X41709761Y-66423039D01*
X41709757Y-66423041D01*
X41632330Y-66482453D01*
X41598167Y-66508667D01*
X41595169Y-66512574D01*
X41512541Y-66620257D01*
X41512539Y-66620261D01*
X41509543Y-66624165D01*
X41500853Y-66645145D01*
X41457744Y-66749218D01*
X41453831Y-66758664D01*
X41434829Y-66903000D01*
X41453831Y-67047336D01*
X41455716Y-67051888D01*
X41455717Y-67051890D01*
X41479028Y-67108166D01*
X41509543Y-67181835D01*
X41512542Y-67185743D01*
X41512544Y-67185747D01*
X41545966Y-67229304D01*
X41561434Y-67278363D01*
X41541749Y-67325887D01*
X41496121Y-67349639D01*
X41486306Y-67350282D01*
X27478768Y-67350281D01*
X26711960Y-67350281D01*
X26692499Y-67347719D01*
X26681999Y-67344906D01*
X26672437Y-67347468D01*
X26662537Y-67347468D01*
X26662537Y-67347227D01*
X26653609Y-67348047D01*
X26492731Y-67335386D01*
X26481076Y-67333540D01*
X26302228Y-67290602D01*
X26291005Y-67286956D01*
X26121070Y-67216566D01*
X26110556Y-67211209D01*
X25953722Y-67115102D01*
X25944176Y-67108166D01*
X25931256Y-67097131D01*
X25804309Y-66988708D01*
X25795973Y-66980372D01*
X25676515Y-66840504D01*
X25669579Y-66830958D01*
X25573472Y-66674125D01*
X25568115Y-66663611D01*
X25497726Y-66493676D01*
X25494080Y-66482453D01*
X25451142Y-66303604D01*
X25449296Y-66291949D01*
X25436635Y-66131071D01*
X25437455Y-66122145D01*
X25437214Y-66122145D01*
X25437214Y-66112245D01*
X25439776Y-66102681D01*
X25436961Y-66092176D01*
X25434400Y-66072719D01*
X25434400Y-64010000D01*
X31082329Y-64010000D01*
X31101331Y-64154336D01*
X31103216Y-64158888D01*
X31103217Y-64158890D01*
X31116145Y-64190100D01*
X31157043Y-64288835D01*
X31160039Y-64292739D01*
X31160041Y-64292743D01*
X31234290Y-64389506D01*
X31245667Y-64404333D01*
X31249574Y-64407331D01*
X31289694Y-64438116D01*
X31361164Y-64492957D01*
X31416978Y-64516076D01*
X31491110Y-64546783D01*
X31491112Y-64546784D01*
X31495664Y-64548669D01*
X31640000Y-64567671D01*
X31784336Y-64548669D01*
X31788888Y-64546784D01*
X31788890Y-64546783D01*
X31863022Y-64516076D01*
X31918836Y-64492957D01*
X31969577Y-64454022D01*
X32011935Y-64421520D01*
X32057714Y-64405980D01*
X39115598Y-64405980D01*
X39161377Y-64421520D01*
X39240244Y-64482037D01*
X39284484Y-64500362D01*
X39370190Y-64535863D01*
X39370192Y-64535864D01*
X39374744Y-64537749D01*
X39519080Y-64556751D01*
X39663416Y-64537749D01*
X39667968Y-64535864D01*
X39667970Y-64535863D01*
X39753676Y-64500362D01*
X39797916Y-64482037D01*
X39899182Y-64404333D01*
X39909506Y-64396411D01*
X39913413Y-64393413D01*
X39926064Y-64376926D01*
X39999039Y-64281823D01*
X39999041Y-64281819D01*
X40002037Y-64277915D01*
X40044358Y-64175745D01*
X40055863Y-64147970D01*
X40055864Y-64147968D01*
X40057749Y-64143416D01*
X40076751Y-63999080D01*
X40057749Y-63854744D01*
X40044877Y-63823667D01*
X40009408Y-63738041D01*
X40002037Y-63720245D01*
X39999041Y-63716341D01*
X39999039Y-63716337D01*
X39916411Y-63608654D01*
X39913413Y-63604747D01*
X39797916Y-63516123D01*
X39728100Y-63487204D01*
X39667970Y-63462297D01*
X39667968Y-63462296D01*
X39663416Y-63460411D01*
X39519080Y-63441409D01*
X39374744Y-63460411D01*
X39370192Y-63462296D01*
X39370190Y-63462297D01*
X39310061Y-63487204D01*
X39240245Y-63516123D01*
X39236341Y-63519119D01*
X39236337Y-63519121D01*
X39161377Y-63576640D01*
X39115598Y-63592180D01*
X32029251Y-63592180D01*
X31983472Y-63576640D01*
X31922743Y-63530041D01*
X31918836Y-63527043D01*
X31822657Y-63487204D01*
X31788890Y-63473217D01*
X31788888Y-63473216D01*
X31784336Y-63471331D01*
X31640000Y-63452329D01*
X31495664Y-63471331D01*
X31491112Y-63473216D01*
X31491110Y-63473217D01*
X31422867Y-63501485D01*
X31361165Y-63527043D01*
X31357261Y-63530039D01*
X31357257Y-63530041D01*
X31249574Y-63612669D01*
X31245667Y-63615667D01*
X31242669Y-63619574D01*
X31160041Y-63727257D01*
X31160039Y-63727261D01*
X31157043Y-63731165D01*
X31154802Y-63736576D01*
X31104478Y-63858067D01*
X31101331Y-63865664D01*
X31082329Y-64010000D01*
X25434400Y-64010000D01*
X25434400Y-62158525D01*
X43874153Y-62158525D01*
X43911771Y-62290148D01*
X43984819Y-62405921D01*
X44087424Y-62496539D01*
X44092271Y-62498815D01*
X44092273Y-62498816D01*
X44134225Y-62518512D01*
X44211339Y-62554717D01*
X44245545Y-62560043D01*
X44312406Y-62570454D01*
X44312411Y-62570454D01*
X44315273Y-62570900D01*
X44386812Y-62570900D01*
X44425481Y-62565362D01*
X44482707Y-62557167D01*
X44482711Y-62557166D01*
X44488010Y-62556407D01*
X44492884Y-62554191D01*
X44492887Y-62554190D01*
X44574735Y-62516976D01*
X44612626Y-62499748D01*
X44698822Y-62425477D01*
X44712277Y-62413884D01*
X44712280Y-62413881D01*
X44716331Y-62410390D01*
X44733808Y-62383426D01*
X44787876Y-62300010D01*
X44787877Y-62300009D01*
X44790788Y-62295517D01*
X44830011Y-62164364D01*
X44830080Y-62153171D01*
X44830814Y-62032829D01*
X44830847Y-62027475D01*
X44793229Y-61895852D01*
X44720181Y-61780079D01*
X44617576Y-61689461D01*
X44612729Y-61687185D01*
X44612727Y-61687184D01*
X44559683Y-61662280D01*
X44493661Y-61631283D01*
X44447610Y-61624113D01*
X44392594Y-61615546D01*
X44392589Y-61615546D01*
X44389727Y-61615100D01*
X44318188Y-61615100D01*
X44279519Y-61620638D01*
X44222293Y-61628833D01*
X44222289Y-61628834D01*
X44216990Y-61629593D01*
X44212116Y-61631809D01*
X44212113Y-61631810D01*
X44139287Y-61664922D01*
X44092374Y-61686252D01*
X44077425Y-61699133D01*
X43992723Y-61772116D01*
X43992720Y-61772119D01*
X43988669Y-61775610D01*
X43914212Y-61890483D01*
X43911067Y-61901000D01*
X43893115Y-61961028D01*
X43874989Y-62021636D01*
X43874956Y-62026991D01*
X43874956Y-62026993D01*
X43874583Y-62088111D01*
X43874153Y-62158525D01*
X25434400Y-62158525D01*
X25434400Y-60867644D01*
X25436961Y-60848187D01*
X25439776Y-60837682D01*
X25437214Y-60828118D01*
X25437214Y-60818218D01*
X25437455Y-60818218D01*
X25436635Y-60809292D01*
X25449296Y-60648415D01*
X25451142Y-60636760D01*
X25494080Y-60457911D01*
X25497726Y-60446688D01*
X25568116Y-60276753D01*
X25573473Y-60266239D01*
X25669580Y-60109406D01*
X25676516Y-60099860D01*
X25795970Y-59959997D01*
X25804315Y-59951652D01*
X25944178Y-59832198D01*
X25953724Y-59825262D01*
X26110557Y-59729155D01*
X26121071Y-59723798D01*
X26291006Y-59653408D01*
X26302229Y-59649762D01*
X26481078Y-59606824D01*
X26492733Y-59604978D01*
X26653610Y-59592317D01*
X26662536Y-59593137D01*
X26662536Y-59592896D01*
X26672436Y-59592896D01*
X26682000Y-59595458D01*
X26692505Y-59592643D01*
X26711962Y-59590082D01*
X41906522Y-59590082D01*
X41954860Y-59607675D01*
G37*
%TD.AperFunction*%
%TD*%
M02*
