%TF.GenerationSoftware,KiCad,Pcbnew,(6.0.1)*%
%TF.CreationDate,2022-05-23T21:20:42+02:00*%
%TF.ProjectId,AKBDB,414b4244-422e-46b6-9963-61645f706362,R1*%
%TF.SameCoordinates,Original*%
%TF.FileFunction,Soldermask,Bot*%
%TF.FilePolarity,Negative*%
%FSLAX46Y46*%
G04 Gerber Fmt 4.6, Leading zero omitted, Abs format (unit mm)*
G04 Created by KiCad (PCBNEW (6.0.1)) date 2022-05-23 21:20:42*
%MOMM*%
%LPD*%
G01*
G04 APERTURE LIST*
G04 Aperture macros list*
%AMRoundRect*
0 Rectangle with rounded corners*
0 $1 Rounding radius*
0 $2 $3 $4 $5 $6 $7 $8 $9 X,Y pos of 4 corners*
0 Add a 4 corners polygon primitive as box body*
4,1,4,$2,$3,$4,$5,$6,$7,$8,$9,$2,$3,0*
0 Add four circle primitives for the rounded corners*
1,1,$1+$1,$2,$3*
1,1,$1+$1,$4,$5*
1,1,$1+$1,$6,$7*
1,1,$1+$1,$8,$9*
0 Add four rect primitives between the rounded corners*
20,1,$1+$1,$2,$3,$4,$5,0*
20,1,$1+$1,$4,$5,$6,$7,0*
20,1,$1+$1,$6,$7,$8,$9,0*
20,1,$1+$1,$8,$9,$2,$3,0*%
G04 Aperture macros list end*
%ADD10C,3.602001*%
%ADD11C,3.602000*%
%ADD12RoundRect,0.186000X0.185000X-0.135000X0.185000X0.135000X-0.185000X0.135000X-0.185000X-0.135000X0*%
%ADD13RoundRect,0.201000X0.512500X0.150000X-0.512500X0.150000X-0.512500X-0.150000X0.512500X-0.150000X0*%
%ADD14RoundRect,0.201000X-0.150000X-0.625000X0.150000X-0.625000X0.150000X0.625000X-0.150000X0.625000X0*%
%ADD15RoundRect,0.301000X-0.350000X-0.650000X0.350000X-0.650000X0.350000X0.650000X-0.350000X0.650000X0*%
%ADD16RoundRect,0.269750X-0.256250X0.218750X-0.256250X-0.218750X0.256250X-0.218750X0.256250X0.218750X0*%
%ADD17RoundRect,0.186000X-0.135000X-0.185000X0.135000X-0.185000X0.135000X0.185000X-0.135000X0.185000X0*%
%ADD18C,0.752000*%
%ADD19RoundRect,0.051000X0.300000X0.725000X-0.300000X0.725000X-0.300000X-0.725000X0.300000X-0.725000X0*%
%ADD20RoundRect,0.051000X0.150000X0.725000X-0.150000X0.725000X-0.150000X-0.725000X0.150000X-0.725000X0*%
%ADD21O,1.102000X2.202000*%
%ADD22O,1.102000X1.702000*%
G04 APERTURE END LIST*
D10*
%TO.C,MH2*%
X56197500Y-63463000D03*
%TD*%
D11*
%TO.C,MH1*%
X27314000Y-63467682D03*
%TD*%
D12*
%TO.C,R2*%
X41052500Y-62140000D03*
X41052500Y-61120000D03*
%TD*%
D13*
%TO.C,U1*%
X40587500Y-64790000D03*
X40587500Y-65740000D03*
X40587500Y-66690000D03*
X38312500Y-66690000D03*
X38312500Y-65740000D03*
X38312500Y-64790000D03*
%TD*%
D14*
%TO.C,J2*%
X31642500Y-65223000D03*
X32642500Y-65223000D03*
X33642500Y-65223000D03*
X34642500Y-65223000D03*
D15*
X30342500Y-61348000D03*
X35942500Y-61348000D03*
%TD*%
D16*
%TO.C,F1*%
X39527500Y-61405500D03*
X39527500Y-62980500D03*
%TD*%
D17*
%TO.C,R1*%
X53320000Y-60650000D03*
X54340000Y-60650000D03*
%TD*%
D18*
%TO.C,J1*%
X44352500Y-62093000D03*
X50132500Y-62093000D03*
D19*
X50492500Y-60648000D03*
X49692500Y-60648000D03*
D20*
X48492500Y-60648000D03*
X47492500Y-60648000D03*
X46992500Y-60648000D03*
X45992500Y-60648000D03*
D19*
X44792500Y-60648000D03*
X43992500Y-60648000D03*
X43992500Y-60648000D03*
X44792500Y-60648000D03*
D20*
X45492500Y-60648000D03*
X46492500Y-60648000D03*
X47992500Y-60648000D03*
X48992500Y-60648000D03*
D19*
X49692500Y-60648000D03*
X50492500Y-60648000D03*
D21*
X51562500Y-61563000D03*
X42922500Y-61563000D03*
D22*
X42922500Y-65743000D03*
X51562500Y-65743000D03*
%TD*%
D16*
%TO.C,L1*%
X37930000Y-61402500D03*
X37930000Y-62977500D03*
%TD*%
G36*
X41093527Y-66090000D02*
G01*
X41093527Y-66092000D01*
X41092056Y-66092983D01*
X41091817Y-66093015D01*
X41028204Y-66121154D01*
X40990070Y-66178965D01*
X40989244Y-66248220D01*
X41025983Y-66306914D01*
X41091825Y-66336985D01*
X41092068Y-66337017D01*
X41093655Y-66338235D01*
X41093394Y-66340218D01*
X41091807Y-66341000D01*
X40083205Y-66341000D01*
X40081473Y-66340000D01*
X40081473Y-66338000D01*
X40082944Y-66337017D01*
X40083183Y-66336985D01*
X40146796Y-66308846D01*
X40184930Y-66251035D01*
X40185756Y-66181780D01*
X40149017Y-66123086D01*
X40083175Y-66093015D01*
X40082932Y-66092983D01*
X40081345Y-66091765D01*
X40081606Y-66089782D01*
X40083193Y-66089000D01*
X41091795Y-66089000D01*
X41093527Y-66090000D01*
G37*
G36*
X38818527Y-66090000D02*
G01*
X38818527Y-66092000D01*
X38817056Y-66092983D01*
X38816817Y-66093015D01*
X38753204Y-66121154D01*
X38715070Y-66178965D01*
X38714244Y-66248220D01*
X38750983Y-66306914D01*
X38816825Y-66336985D01*
X38817068Y-66337017D01*
X38818655Y-66338235D01*
X38818394Y-66340218D01*
X38816807Y-66341000D01*
X37808205Y-66341000D01*
X37806473Y-66340000D01*
X37806473Y-66338000D01*
X37807944Y-66337017D01*
X37808183Y-66336985D01*
X37871796Y-66308846D01*
X37909930Y-66251035D01*
X37910756Y-66181780D01*
X37874017Y-66123086D01*
X37808175Y-66093015D01*
X37807932Y-66092983D01*
X37806345Y-66091765D01*
X37806606Y-66089782D01*
X37808193Y-66089000D01*
X38816795Y-66089000D01*
X38818527Y-66090000D01*
G37*
G36*
X41093527Y-65140000D02*
G01*
X41093527Y-65142000D01*
X41092056Y-65142983D01*
X41091817Y-65143015D01*
X41028204Y-65171154D01*
X40990070Y-65228965D01*
X40989244Y-65298220D01*
X41025983Y-65356914D01*
X41091825Y-65386985D01*
X41092068Y-65387017D01*
X41093655Y-65388235D01*
X41093394Y-65390218D01*
X41091807Y-65391000D01*
X40083205Y-65391000D01*
X40081473Y-65390000D01*
X40081473Y-65388000D01*
X40082944Y-65387017D01*
X40083183Y-65386985D01*
X40146796Y-65358846D01*
X40184930Y-65301035D01*
X40185756Y-65231780D01*
X40149017Y-65173086D01*
X40083175Y-65143015D01*
X40082932Y-65142983D01*
X40081345Y-65141765D01*
X40081606Y-65139782D01*
X40083193Y-65139000D01*
X41091795Y-65139000D01*
X41093527Y-65140000D01*
G37*
G36*
X38818527Y-65140000D02*
G01*
X38818527Y-65142000D01*
X38817056Y-65142983D01*
X38816817Y-65143015D01*
X38753204Y-65171154D01*
X38715070Y-65228965D01*
X38714244Y-65298220D01*
X38750983Y-65356914D01*
X38816825Y-65386985D01*
X38817068Y-65387017D01*
X38818655Y-65388235D01*
X38818394Y-65390218D01*
X38816807Y-65391000D01*
X37808205Y-65391000D01*
X37806473Y-65390000D01*
X37806473Y-65388000D01*
X37807944Y-65387017D01*
X37808183Y-65386985D01*
X37871796Y-65358846D01*
X37909930Y-65301035D01*
X37910756Y-65231780D01*
X37874017Y-65173086D01*
X37808175Y-65143015D01*
X37807932Y-65142983D01*
X37806345Y-65141765D01*
X37806606Y-65139782D01*
X37808193Y-65139000D01*
X38816795Y-65139000D01*
X38818527Y-65140000D01*
G37*
G36*
X43642712Y-60690850D02*
G01*
X43643500Y-60692441D01*
X43643500Y-61372801D01*
X43647267Y-61391738D01*
X43657880Y-61407620D01*
X43660923Y-61409654D01*
X43661808Y-61411448D01*
X43660696Y-61413111D01*
X43659214Y-61413226D01*
X43600691Y-61394901D01*
X43533901Y-61413225D01*
X43487575Y-61464799D01*
X43475450Y-61518239D01*
X43474092Y-61519706D01*
X43472142Y-61519264D01*
X43471500Y-61517796D01*
X43471500Y-61013132D01*
X43451260Y-60865371D01*
X43400184Y-60747342D01*
X43400414Y-60745356D01*
X43402250Y-60744561D01*
X43403668Y-60745415D01*
X43414974Y-60761865D01*
X43468924Y-60805765D01*
X43537751Y-60813496D01*
X43599830Y-60782790D01*
X43635539Y-60723252D01*
X43639516Y-60692187D01*
X43640728Y-60690596D01*
X43642712Y-60690850D01*
G37*
G36*
X50845419Y-60690491D02*
G01*
X50865096Y-60757506D01*
X50917439Y-60802861D01*
X50985992Y-60812718D01*
X51049148Y-60783875D01*
X51069203Y-60761677D01*
X51107034Y-60707848D01*
X51108848Y-60707006D01*
X51110484Y-60708156D01*
X51110370Y-60710052D01*
X51060981Y-60789709D01*
X51019391Y-60932864D01*
X51013500Y-61013078D01*
X51013500Y-61517796D01*
X51012500Y-61519528D01*
X51010500Y-61519528D01*
X51009581Y-61518359D01*
X50989904Y-61451344D01*
X50937561Y-61405989D01*
X50868942Y-61396123D01*
X50827903Y-61411849D01*
X50825927Y-61411535D01*
X50825212Y-61409667D01*
X50826076Y-61408318D01*
X50827120Y-61407620D01*
X50837733Y-61391738D01*
X50841500Y-61372801D01*
X50841500Y-60691054D01*
X50842500Y-60689322D01*
X50844500Y-60689322D01*
X50845419Y-60690491D01*
G37*
G36*
X46807133Y-59886517D02*
G01*
X46807697Y-59888436D01*
X46807416Y-59889075D01*
X46797267Y-59904263D01*
X46793500Y-59923199D01*
X46793500Y-61372801D01*
X46797267Y-61391738D01*
X46807314Y-61406773D01*
X46807445Y-61408768D01*
X46805782Y-61409880D01*
X46805053Y-61409793D01*
X46744712Y-61390898D01*
X46679810Y-61409955D01*
X46677867Y-61409483D01*
X46677303Y-61407564D01*
X46677584Y-61406925D01*
X46687733Y-61391737D01*
X46691500Y-61372801D01*
X46691500Y-59923199D01*
X46687733Y-59904262D01*
X46677686Y-59889227D01*
X46677555Y-59887232D01*
X46679218Y-59886120D01*
X46679947Y-59886207D01*
X46740288Y-59905102D01*
X46805190Y-59886045D01*
X46807133Y-59886517D01*
G37*
G36*
X48307133Y-59886517D02*
G01*
X48307697Y-59888436D01*
X48307416Y-59889075D01*
X48297267Y-59904263D01*
X48293500Y-59923199D01*
X48293500Y-61372801D01*
X48297267Y-61391738D01*
X48307314Y-61406773D01*
X48307445Y-61408768D01*
X48305782Y-61409880D01*
X48305053Y-61409793D01*
X48244712Y-61390898D01*
X48179810Y-61409955D01*
X48177867Y-61409483D01*
X48177303Y-61407564D01*
X48177584Y-61406925D01*
X48187733Y-61391737D01*
X48191500Y-61372801D01*
X48191500Y-59923199D01*
X48187733Y-59904262D01*
X48177686Y-59889227D01*
X48177555Y-59887232D01*
X48179218Y-59886120D01*
X48179947Y-59886207D01*
X48240288Y-59905102D01*
X48305190Y-59886045D01*
X48307133Y-59886517D01*
G37*
G36*
X47807133Y-59886517D02*
G01*
X47807697Y-59888436D01*
X47807416Y-59889075D01*
X47797267Y-59904263D01*
X47793500Y-59923199D01*
X47793500Y-61372801D01*
X47797267Y-61391738D01*
X47807314Y-61406773D01*
X47807445Y-61408768D01*
X47805782Y-61409880D01*
X47805053Y-61409793D01*
X47744712Y-61390898D01*
X47679810Y-61409955D01*
X47677867Y-61409483D01*
X47677303Y-61407564D01*
X47677584Y-61406925D01*
X47687733Y-61391737D01*
X47691500Y-61372801D01*
X47691500Y-59923199D01*
X47687733Y-59904262D01*
X47677686Y-59889227D01*
X47677555Y-59887232D01*
X47679218Y-59886120D01*
X47679947Y-59886207D01*
X47740288Y-59905102D01*
X47805190Y-59886045D01*
X47807133Y-59886517D01*
G37*
G36*
X47307133Y-59886517D02*
G01*
X47307697Y-59888436D01*
X47307416Y-59889075D01*
X47297267Y-59904263D01*
X47293500Y-59923199D01*
X47293500Y-61372801D01*
X47297267Y-61391738D01*
X47307314Y-61406773D01*
X47307445Y-61408768D01*
X47305782Y-61409880D01*
X47305053Y-61409793D01*
X47244712Y-61390898D01*
X47179810Y-61409955D01*
X47177867Y-61409483D01*
X47177303Y-61407564D01*
X47177584Y-61406925D01*
X47187733Y-61391737D01*
X47191500Y-61372801D01*
X47191500Y-59923199D01*
X47187733Y-59904262D01*
X47177686Y-59889227D01*
X47177555Y-59887232D01*
X47179218Y-59886120D01*
X47179947Y-59886207D01*
X47240288Y-59905102D01*
X47305190Y-59886045D01*
X47307133Y-59886517D01*
G37*
G36*
X48807133Y-59886517D02*
G01*
X48807697Y-59888436D01*
X48807416Y-59889075D01*
X48797267Y-59904263D01*
X48793500Y-59923199D01*
X48793500Y-61372801D01*
X48797267Y-61391738D01*
X48807314Y-61406773D01*
X48807445Y-61408768D01*
X48805782Y-61409880D01*
X48805053Y-61409793D01*
X48744712Y-61390898D01*
X48679810Y-61409955D01*
X48677867Y-61409483D01*
X48677303Y-61407564D01*
X48677584Y-61406925D01*
X48687733Y-61391737D01*
X48691500Y-61372801D01*
X48691500Y-59923199D01*
X48687733Y-59904262D01*
X48677686Y-59889227D01*
X48677555Y-59887232D01*
X48679218Y-59886120D01*
X48679947Y-59886207D01*
X48740288Y-59905102D01*
X48805190Y-59886045D01*
X48807133Y-59886517D01*
G37*
G36*
X44457133Y-59886517D02*
G01*
X44457697Y-59888436D01*
X44457416Y-59889075D01*
X44447267Y-59904263D01*
X44443500Y-59923199D01*
X44443500Y-61372801D01*
X44447267Y-61391738D01*
X44457314Y-61406773D01*
X44457445Y-61408768D01*
X44455782Y-61409880D01*
X44455053Y-61409793D01*
X44394712Y-61390898D01*
X44329810Y-61409955D01*
X44327867Y-61409483D01*
X44327303Y-61407564D01*
X44327584Y-61406925D01*
X44337733Y-61391737D01*
X44341500Y-61372801D01*
X44341500Y-59923199D01*
X44337733Y-59904262D01*
X44327686Y-59889227D01*
X44327555Y-59887232D01*
X44329218Y-59886120D01*
X44329947Y-59886207D01*
X44390288Y-59905102D01*
X44455190Y-59886045D01*
X44457133Y-59886517D01*
G37*
G36*
X45807133Y-59886517D02*
G01*
X45807697Y-59888436D01*
X45807416Y-59889075D01*
X45797267Y-59904263D01*
X45793500Y-59923199D01*
X45793500Y-61372801D01*
X45797267Y-61391738D01*
X45807314Y-61406773D01*
X45807445Y-61408768D01*
X45805782Y-61409880D01*
X45805053Y-61409793D01*
X45744712Y-61390898D01*
X45679810Y-61409955D01*
X45677867Y-61409483D01*
X45677303Y-61407564D01*
X45677584Y-61406925D01*
X45687733Y-61391737D01*
X45691500Y-61372801D01*
X45691500Y-59923199D01*
X45687733Y-59904262D01*
X45677686Y-59889227D01*
X45677555Y-59887232D01*
X45679218Y-59886120D01*
X45679947Y-59886207D01*
X45740288Y-59905102D01*
X45805190Y-59886045D01*
X45807133Y-59886517D01*
G37*
G36*
X46307133Y-59886517D02*
G01*
X46307697Y-59888436D01*
X46307416Y-59889075D01*
X46297267Y-59904263D01*
X46293500Y-59923199D01*
X46293500Y-61372801D01*
X46297267Y-61391738D01*
X46307314Y-61406773D01*
X46307445Y-61408768D01*
X46305782Y-61409880D01*
X46305053Y-61409793D01*
X46244712Y-61390898D01*
X46179810Y-61409955D01*
X46177867Y-61409483D01*
X46177303Y-61407564D01*
X46177584Y-61406925D01*
X46187733Y-61391737D01*
X46191500Y-61372801D01*
X46191500Y-59923199D01*
X46187733Y-59904262D01*
X46177686Y-59889227D01*
X46177555Y-59887232D01*
X46179218Y-59886120D01*
X46179947Y-59886207D01*
X46240288Y-59905102D01*
X46305190Y-59886045D01*
X46307133Y-59886517D01*
G37*
G36*
X50157133Y-59886517D02*
G01*
X50157697Y-59888436D01*
X50157416Y-59889075D01*
X50147267Y-59904263D01*
X50143500Y-59923199D01*
X50143500Y-61372801D01*
X50147267Y-61391738D01*
X50157314Y-61406773D01*
X50157445Y-61408768D01*
X50155782Y-61409880D01*
X50155053Y-61409793D01*
X50094712Y-61390898D01*
X50029810Y-61409955D01*
X50027867Y-61409483D01*
X50027303Y-61407564D01*
X50027584Y-61406925D01*
X50037733Y-61391737D01*
X50041500Y-61372801D01*
X50041500Y-59923199D01*
X50037733Y-59904262D01*
X50027686Y-59889227D01*
X50027555Y-59887232D01*
X50029218Y-59886120D01*
X50029947Y-59886207D01*
X50090288Y-59905102D01*
X50155190Y-59886045D01*
X50157133Y-59886517D01*
G37*
G36*
X49183160Y-59890493D02*
G01*
X49196952Y-59899709D01*
X49198115Y-59897969D01*
X49199909Y-59897084D01*
X49201060Y-59897545D01*
X49218452Y-59912078D01*
X49287170Y-59920704D01*
X49334788Y-59897918D01*
X49336782Y-59898072D01*
X49337314Y-59898611D01*
X49338048Y-59899709D01*
X49351840Y-59890493D01*
X49353836Y-59890362D01*
X49354947Y-59892025D01*
X49354614Y-59893267D01*
X49347267Y-59904262D01*
X49343500Y-59923199D01*
X49343500Y-61372801D01*
X49347267Y-61391738D01*
X49354614Y-61402733D01*
X49354745Y-61404729D01*
X49353082Y-61405840D01*
X49351840Y-61405507D01*
X49338048Y-61396291D01*
X49336885Y-61398031D01*
X49335091Y-61398916D01*
X49333940Y-61398455D01*
X49316548Y-61383922D01*
X49247830Y-61375296D01*
X49200212Y-61398082D01*
X49198218Y-61397928D01*
X49197686Y-61397389D01*
X49196952Y-61396291D01*
X49183160Y-61405507D01*
X49181164Y-61405638D01*
X49180053Y-61403975D01*
X49180386Y-61402733D01*
X49187733Y-61391738D01*
X49191500Y-61372801D01*
X49191500Y-59923199D01*
X49187733Y-59904262D01*
X49180386Y-59893267D01*
X49180255Y-59891271D01*
X49181918Y-59890160D01*
X49183160Y-59890493D01*
G37*
G36*
X45133160Y-59890493D02*
G01*
X45146952Y-59899709D01*
X45148115Y-59897969D01*
X45149909Y-59897084D01*
X45151060Y-59897545D01*
X45168452Y-59912078D01*
X45237170Y-59920704D01*
X45284788Y-59897918D01*
X45286782Y-59898072D01*
X45287314Y-59898611D01*
X45288048Y-59899709D01*
X45301840Y-59890493D01*
X45303836Y-59890362D01*
X45304947Y-59892025D01*
X45304614Y-59893267D01*
X45297267Y-59904262D01*
X45293500Y-59923199D01*
X45293500Y-61372801D01*
X45297267Y-61391738D01*
X45304614Y-61402733D01*
X45304745Y-61404729D01*
X45303082Y-61405840D01*
X45301840Y-61405507D01*
X45288048Y-61396291D01*
X45286885Y-61398031D01*
X45285091Y-61398916D01*
X45283940Y-61398455D01*
X45266548Y-61383922D01*
X45197830Y-61375296D01*
X45150212Y-61398082D01*
X45148218Y-61397928D01*
X45147686Y-61397389D01*
X45146952Y-61396291D01*
X45133160Y-61405507D01*
X45131164Y-61405638D01*
X45130053Y-61403975D01*
X45130386Y-61402733D01*
X45137733Y-61391738D01*
X45141500Y-61372801D01*
X45141500Y-59923199D01*
X45137733Y-59904262D01*
X45130386Y-59893267D01*
X45130255Y-59891271D01*
X45131918Y-59890160D01*
X45133160Y-59890493D01*
G37*
M02*
