%TF.GenerationSoftware,KiCad,Pcbnew,(6.0.1)*%
%TF.CreationDate,2022-05-23T21:20:42+02:00*%
%TF.ProjectId,AKBDB,414b4244-422e-46b6-9963-61645f706362,R1*%
%TF.SameCoordinates,Original*%
%TF.FileFunction,Copper,L2,Bot*%
%TF.FilePolarity,Positive*%
%FSLAX46Y46*%
G04 Gerber Fmt 4.6, Leading zero omitted, Abs format (unit mm)*
G04 Created by KiCad (PCBNEW (6.0.1)) date 2022-05-23 21:20:42*
%MOMM*%
%LPD*%
G01*
G04 APERTURE LIST*
G04 Aperture macros list*
%AMRoundRect*
0 Rectangle with rounded corners*
0 $1 Rounding radius*
0 $2 $3 $4 $5 $6 $7 $8 $9 X,Y pos of 4 corners*
0 Add a 4 corners polygon primitive as box body*
4,1,4,$2,$3,$4,$5,$6,$7,$8,$9,$2,$3,0*
0 Add four circle primitives for the rounded corners*
1,1,$1+$1,$2,$3*
1,1,$1+$1,$4,$5*
1,1,$1+$1,$6,$7*
1,1,$1+$1,$8,$9*
0 Add four rect primitives between the rounded corners*
20,1,$1+$1,$2,$3,$4,$5,0*
20,1,$1+$1,$4,$5,$6,$7,0*
20,1,$1+$1,$6,$7,$8,$9,0*
20,1,$1+$1,$8,$9,$2,$3,0*%
G04 Aperture macros list end*
%TA.AperFunction,ComponentPad*%
%ADD10C,3.500001*%
%TD*%
%TA.AperFunction,ComponentPad*%
%ADD11C,3.500000*%
%TD*%
%TA.AperFunction,SMDPad,CuDef*%
%ADD12RoundRect,0.135000X0.185000X-0.135000X0.185000X0.135000X-0.185000X0.135000X-0.185000X-0.135000X0*%
%TD*%
%TA.AperFunction,SMDPad,CuDef*%
%ADD13RoundRect,0.150000X0.512500X0.150000X-0.512500X0.150000X-0.512500X-0.150000X0.512500X-0.150000X0*%
%TD*%
%TA.AperFunction,SMDPad,CuDef*%
%ADD14RoundRect,0.150000X-0.150000X-0.625000X0.150000X-0.625000X0.150000X0.625000X-0.150000X0.625000X0*%
%TD*%
%TA.AperFunction,SMDPad,CuDef*%
%ADD15RoundRect,0.250000X-0.350000X-0.650000X0.350000X-0.650000X0.350000X0.650000X-0.350000X0.650000X0*%
%TD*%
%TA.AperFunction,SMDPad,CuDef*%
%ADD16RoundRect,0.218750X-0.256250X0.218750X-0.256250X-0.218750X0.256250X-0.218750X0.256250X0.218750X0*%
%TD*%
%TA.AperFunction,SMDPad,CuDef*%
%ADD17RoundRect,0.135000X-0.135000X-0.185000X0.135000X-0.185000X0.135000X0.185000X-0.135000X0.185000X0*%
%TD*%
%TA.AperFunction,SMDPad,CuDef*%
%ADD18R,0.600000X1.450000*%
%TD*%
%TA.AperFunction,SMDPad,CuDef*%
%ADD19R,0.300000X1.450000*%
%TD*%
%TA.AperFunction,ComponentPad*%
%ADD20O,1.000000X2.100000*%
%TD*%
%TA.AperFunction,ComponentPad*%
%ADD21O,1.000000X1.600000*%
%TD*%
%TA.AperFunction,ViaPad*%
%ADD22C,0.800000*%
%TD*%
%TA.AperFunction,Conductor*%
%ADD23C,0.508000*%
%TD*%
%TA.AperFunction,Conductor*%
%ADD24C,0.254000*%
%TD*%
%TA.AperFunction,Conductor*%
%ADD25C,0.200000*%
%TD*%
G04 APERTURE END LIST*
D10*
%TO.P,MH2,1,Pin_1*%
%TO.N,GNDPWR*%
X56197500Y-63463000D03*
%TD*%
D11*
%TO.P,MH1,1,Pin_1*%
%TO.N,GNDPWR*%
X27314000Y-63467682D03*
%TD*%
D12*
%TO.P,R2,1*%
%TO.N,Net-(J1-PadB5)*%
X41052500Y-62140000D03*
%TO.P,R2,2*%
%TO.N,GNDPWR*%
X41052500Y-61120000D03*
%TD*%
D13*
%TO.P,U1,1,I/O1*%
%TO.N,DBus+*%
X40587500Y-64790000D03*
%TO.P,U1,2,GND*%
%TO.N,GNDPWR*%
X40587500Y-65740000D03*
%TO.P,U1,3,I/O2*%
%TO.N,DBus-*%
X40587500Y-66690000D03*
%TO.P,U1,4,I/O2*%
%TO.N,DN*%
X38312500Y-66690000D03*
%TO.P,U1,5,VBUS*%
%TO.N,VCC*%
X38312500Y-65740000D03*
%TO.P,U1,6,I/O1*%
%TO.N,DP*%
X38312500Y-64790000D03*
%TD*%
D14*
%TO.P,J2,1,Pin_1*%
%TO.N,VCC*%
X31642500Y-65223000D03*
%TO.P,J2,2,Pin_2*%
%TO.N,DN*%
X32642500Y-65223000D03*
%TO.P,J2,3,Pin_3*%
%TO.N,DP*%
X33642500Y-65223000D03*
%TO.P,J2,4,Pin_4*%
%TO.N,GND*%
X34642500Y-65223000D03*
D15*
%TO.P,J2,MP,MountPin*%
%TO.N,GNDPWR*%
X30342500Y-61348000D03*
X35942500Y-61348000D03*
%TD*%
D16*
%TO.P,F1,1*%
%TO.N,VBUS*%
X39527500Y-61405500D03*
%TO.P,F1,2*%
%TO.N,VCC*%
X39527500Y-62980500D03*
%TD*%
D17*
%TO.P,R1,1*%
%TO.N,Net-(J1-PadA5)*%
X53320000Y-60650000D03*
%TO.P,R1,2*%
%TO.N,GNDPWR*%
X54340000Y-60650000D03*
%TD*%
D18*
%TO.P,J1,A1,GND*%
%TO.N,GNDPWR*%
X50492500Y-60648000D03*
%TO.P,J1,A4,VBUS*%
%TO.N,VBUS*%
X49692500Y-60648000D03*
D19*
%TO.P,J1,A5,CC1*%
%TO.N,Net-(J1-PadA5)*%
X48492500Y-60648000D03*
%TO.P,J1,A6,D+*%
%TO.N,DBus+*%
X47492500Y-60648000D03*
%TO.P,J1,A7,D-*%
%TO.N,DBus-*%
X46992500Y-60648000D03*
%TO.P,J1,A8,SBU1*%
%TO.N,unconnected-(J1-PadA8)*%
X45992500Y-60648000D03*
D18*
%TO.P,J1,A9,VBUS*%
%TO.N,VBUS*%
X44792500Y-60648000D03*
%TO.P,J1,A12,GND*%
%TO.N,GNDPWR*%
X43992500Y-60648000D03*
%TO.P,J1,B1,GND*%
X43992500Y-60648000D03*
%TO.P,J1,B4,VBUS*%
%TO.N,VBUS*%
X44792500Y-60648000D03*
D19*
%TO.P,J1,B5,CC2*%
%TO.N,Net-(J1-PadB5)*%
X45492500Y-60648000D03*
%TO.P,J1,B6,D+*%
%TO.N,DBus+*%
X46492500Y-60648000D03*
%TO.P,J1,B7,D-*%
%TO.N,DBus-*%
X47992500Y-60648000D03*
%TO.P,J1,B8,SBU2*%
%TO.N,unconnected-(J1-PadB8)*%
X48992500Y-60648000D03*
D18*
%TO.P,J1,B9,VBUS*%
%TO.N,VBUS*%
X49692500Y-60648000D03*
%TO.P,J1,B12,GND*%
%TO.N,GNDPWR*%
X50492500Y-60648000D03*
D20*
%TO.P,J1,S1,SHIELD*%
X51562500Y-61563000D03*
X42922500Y-61563000D03*
D21*
X42922500Y-65743000D03*
X51562500Y-65743000D03*
%TD*%
D16*
%TO.P,L1,1,1*%
%TO.N,GNDPWR*%
X37930000Y-61402500D03*
%TO.P,L1,2,2*%
%TO.N,GND*%
X37930000Y-62977500D03*
%TD*%
D22*
%TO.N,VCC*%
X39519080Y-63999080D03*
X31640000Y-64010000D03*
%TO.N,Net-(J1-PadA5)*%
X53327500Y-64218000D03*
X48353754Y-61997751D03*
%TO.N,Net-(J1-PadB5)*%
X45566025Y-61965912D03*
X41052500Y-63043000D03*
%TO.N,VBUS*%
X42380000Y-60080000D03*
X49302500Y-61968000D03*
%TO.N,DBus+*%
X46492500Y-61973000D03*
X41982500Y-64443000D03*
%TO.N,DBus-*%
X47422500Y-61993000D03*
X41992500Y-66903000D03*
%TO.N,GNDPWR*%
X37930000Y-60370000D03*
X55220000Y-60650000D03*
%TD*%
D23*
%TO.N,GND*%
X34640000Y-65220500D02*
X34642500Y-65223000D01*
X37930000Y-62977500D02*
X35640000Y-62977500D01*
X34640000Y-65220500D02*
X34640000Y-63977500D01*
X34640000Y-63977500D02*
G75*
G02*
X35640000Y-62977500I999999J1D01*
G01*
%TO.N,VCC*%
X31640000Y-64010000D02*
X31640000Y-65420500D01*
X39120000Y-65740000D02*
X38312500Y-65740000D01*
X39519080Y-62988920D02*
X39519080Y-65340920D01*
X39527500Y-62980500D02*
X39519080Y-62988920D01*
X39519080Y-65340920D02*
X39120000Y-65740000D01*
D24*
%TO.N,Net-(J1-PadA5)*%
X48492500Y-61859005D02*
X48353754Y-61997751D01*
X53327500Y-64218000D02*
X53320000Y-60650000D01*
X48492500Y-60648000D02*
X48492500Y-61859005D01*
%TO.N,Net-(J1-PadB5)*%
X41052500Y-63043000D02*
X41052500Y-62140000D01*
X45492500Y-60648000D02*
X45492500Y-61892387D01*
X45492500Y-61892387D02*
X45566025Y-61965912D01*
D23*
%TO.N,VBUS*%
X42390000Y-60080000D02*
X42380000Y-60080000D01*
D24*
X44400511Y-59669489D02*
X42790511Y-59669489D01*
D23*
X39527500Y-61405500D02*
X39527500Y-60830000D01*
X49308522Y-61968000D02*
X49692500Y-61584022D01*
D24*
X44792500Y-60061478D02*
X44400511Y-59669489D01*
X42790511Y-59669489D02*
X42380000Y-60080000D01*
X44792500Y-60648000D02*
X44792500Y-60061478D01*
D23*
X42390000Y-60080000D02*
X40277500Y-60080000D01*
X49692500Y-61584022D02*
X49692500Y-60648000D01*
X40277500Y-60080000D02*
G75*
G03*
X39527500Y-60830000I0J-750000D01*
G01*
D25*
%TO.N,DBus+*%
X47492500Y-59763000D02*
X47492500Y-60648000D01*
X46492500Y-60648000D02*
X46492500Y-61973000D01*
X46492500Y-60648000D02*
X46492500Y-59819978D01*
X46619478Y-59693000D02*
X47422500Y-59693000D01*
X40590000Y-64793000D02*
X41632500Y-64793000D01*
X41632500Y-64793000D02*
X41982500Y-64443000D01*
X47422500Y-59693000D02*
X47492500Y-59763000D01*
X46492500Y-59819978D02*
X46619478Y-59693000D01*
%TO.N,DBus-*%
X47782500Y-61683000D02*
X47422500Y-61683000D01*
X41782500Y-66693000D02*
X41992500Y-66903000D01*
X47992500Y-60648000D02*
X47992500Y-61473000D01*
X47199478Y-61683000D02*
X46992500Y-61476022D01*
X40590000Y-66693000D02*
X41782500Y-66693000D01*
X47992500Y-61473000D02*
X47782500Y-61683000D01*
X46992500Y-61476022D02*
X46992500Y-60648000D01*
X47422500Y-61683000D02*
X47422500Y-61993000D01*
X47422500Y-61683000D02*
X47199478Y-61683000D01*
%TO.N,DN*%
X38312500Y-66690000D02*
X33142500Y-66690000D01*
X32642500Y-65223000D02*
X32642500Y-66190000D01*
X33142500Y-66690000D02*
G75*
G02*
X32642500Y-66190000I1J500001D01*
G01*
%TO.N,DP*%
X33642500Y-65223000D02*
X33642500Y-65863480D01*
X36630000Y-65613480D02*
X36630000Y-65540000D01*
X35880000Y-66363480D02*
X34142500Y-66363480D01*
X38312500Y-64790000D02*
X37380000Y-64790000D01*
X36630000Y-65540000D02*
G75*
G02*
X37380000Y-64790000I750000J0D01*
G01*
X34142500Y-66363480D02*
G75*
G02*
X33642500Y-65863480I1J500001D01*
G01*
X35880000Y-66363480D02*
G75*
G03*
X36630000Y-65613480I0J750000D01*
G01*
D24*
%TO.N,GNDPWR*%
X54340000Y-60650000D02*
X55220000Y-60650000D01*
D23*
X50647500Y-60648000D02*
X51562500Y-61563000D01*
D24*
X42479500Y-61120000D02*
X42922500Y-61563000D01*
D23*
X51562500Y-65743000D02*
X53862500Y-65743000D01*
D24*
X41052500Y-61120000D02*
X42479500Y-61120000D01*
D23*
X50492500Y-60648000D02*
X50647500Y-60648000D01*
X43992500Y-60648000D02*
X43837500Y-60648000D01*
X42922500Y-61563000D02*
X42922500Y-65743000D01*
X53862500Y-65743000D02*
X56142500Y-63463000D01*
X42922500Y-65743000D02*
X40590000Y-65743000D01*
D24*
X37930000Y-61402500D02*
X37930000Y-60370000D01*
D23*
X43837500Y-60648000D02*
X42922500Y-61563000D01*
X51562500Y-61563000D02*
X51562500Y-65743000D01*
%TD*%
%TA.AperFunction,Conductor*%
%TO.N,GNDPWR*%
G36*
X39912155Y-59607675D02*
G01*
X39937875Y-59652224D01*
X39928942Y-59702882D01*
X39889537Y-59735947D01*
X39883675Y-59737795D01*
X39883474Y-59737868D01*
X39880306Y-59738717D01*
X39877332Y-59740104D01*
X39877326Y-59740106D01*
X39780350Y-59785327D01*
X39696841Y-59824268D01*
X39531019Y-59940378D01*
X39387878Y-60083519D01*
X39271768Y-60249341D01*
X39270380Y-60252318D01*
X39187606Y-60429826D01*
X39187604Y-60429832D01*
X39186217Y-60432806D01*
X39133824Y-60628339D01*
X39123092Y-60751014D01*
X39118157Y-60807418D01*
X39096418Y-60854038D01*
X39076385Y-60868367D01*
X39057490Y-60877644D01*
X39057489Y-60877645D01*
X39051912Y-60880383D01*
X39047524Y-60884778D01*
X39047522Y-60884780D01*
X39029954Y-60902379D01*
X38964500Y-60967948D01*
X38961771Y-60973532D01*
X38961769Y-60973534D01*
X38923996Y-61050811D01*
X38910165Y-61079106D01*
X38904489Y-61118014D01*
X38899997Y-61148805D01*
X38899600Y-61151524D01*
X38899600Y-61659476D01*
X38900000Y-61662192D01*
X38900000Y-61662195D01*
X38903663Y-61687077D01*
X38910353Y-61732524D01*
X38912928Y-61737768D01*
X38912928Y-61737769D01*
X38954076Y-61821576D01*
X38964883Y-61843588D01*
X38969277Y-61847975D01*
X38969279Y-61847977D01*
X39048047Y-61926607D01*
X39052448Y-61931000D01*
X39058032Y-61933729D01*
X39058034Y-61933731D01*
X39133862Y-61970796D01*
X39163606Y-61985335D01*
X39202514Y-61991011D01*
X39233321Y-61995506D01*
X39233326Y-61995506D01*
X39236024Y-61995900D01*
X39818976Y-61995900D01*
X39821692Y-61995500D01*
X39821695Y-61995500D01*
X39863362Y-61989366D01*
X39892024Y-61985147D01*
X39897269Y-61982572D01*
X39997512Y-61933355D01*
X39997513Y-61933354D01*
X40003088Y-61930617D01*
X40007475Y-61926223D01*
X40007477Y-61926221D01*
X40086107Y-61847453D01*
X40086108Y-61847452D01*
X40090500Y-61843052D01*
X40093229Y-61837468D01*
X40093231Y-61837466D01*
X40142273Y-61737135D01*
X40144835Y-61731894D01*
X40153986Y-61669171D01*
X40155006Y-61662179D01*
X40155006Y-61662174D01*
X40155400Y-61659476D01*
X40155400Y-61151524D01*
X40144647Y-61078476D01*
X40108761Y-61005385D01*
X40092855Y-60972988D01*
X40092854Y-60972987D01*
X40090117Y-60967412D01*
X40085723Y-60963025D01*
X40085721Y-60963023D01*
X40006953Y-60884393D01*
X40006952Y-60884392D01*
X40002552Y-60880000D01*
X39996968Y-60877270D01*
X39996963Y-60877267D01*
X39980928Y-60869429D01*
X39945227Y-60832395D01*
X39939396Y-60792053D01*
X39944799Y-60751014D01*
X39949880Y-60732052D01*
X39976579Y-60667595D01*
X39986395Y-60650594D01*
X40028865Y-60595246D01*
X40042746Y-60581365D01*
X40098094Y-60538895D01*
X40115095Y-60529079D01*
X40179552Y-60502380D01*
X40198513Y-60497299D01*
X40208378Y-60496000D01*
X40249204Y-60490625D01*
X40270783Y-60490908D01*
X40277500Y-60491972D01*
X40303678Y-60487826D01*
X40315441Y-60486900D01*
X41976518Y-60486900D01*
X42022297Y-60502440D01*
X42101164Y-60562957D01*
X42145605Y-60581365D01*
X42231110Y-60616783D01*
X42231112Y-60616784D01*
X42235664Y-60618669D01*
X42380000Y-60637671D01*
X42524336Y-60618669D01*
X42528888Y-60616784D01*
X42528890Y-60616783D01*
X42614395Y-60581365D01*
X42658836Y-60562957D01*
X42774333Y-60474333D01*
X42812645Y-60424404D01*
X42859959Y-60362743D01*
X42859961Y-60362739D01*
X42862957Y-60358835D01*
X42901312Y-60266239D01*
X42916783Y-60228890D01*
X42916784Y-60228888D01*
X42918669Y-60224336D01*
X42937671Y-60080000D01*
X42931668Y-60034404D01*
X42942802Y-59984184D01*
X42983612Y-59952870D01*
X43006225Y-59949389D01*
X44253425Y-59949389D01*
X44301763Y-59966982D01*
X44306599Y-59971415D01*
X44317574Y-59982390D01*
X44339314Y-60029010D01*
X44339600Y-60035564D01*
X44339601Y-61388056D01*
X44348472Y-61432658D01*
X44382266Y-61483234D01*
X44387941Y-61487026D01*
X44409541Y-61533346D01*
X44396227Y-61583033D01*
X44354090Y-61612538D01*
X44334627Y-61615100D01*
X44318188Y-61615100D01*
X44279519Y-61620638D01*
X44222293Y-61628833D01*
X44222289Y-61628834D01*
X44216990Y-61629593D01*
X44212116Y-61631809D01*
X44212113Y-61631810D01*
X44151265Y-61659476D01*
X44092374Y-61686252D01*
X44056573Y-61717100D01*
X43992723Y-61772116D01*
X43992720Y-61772119D01*
X43988669Y-61775610D01*
X43985758Y-61780101D01*
X43943400Y-61845452D01*
X43914212Y-61890483D01*
X43911067Y-61901000D01*
X43882686Y-61995900D01*
X43874989Y-62021636D01*
X43874956Y-62026991D01*
X43874956Y-62026993D01*
X43874583Y-62088111D01*
X43874153Y-62158525D01*
X43911771Y-62290148D01*
X43984819Y-62405921D01*
X44087424Y-62496539D01*
X44092271Y-62498815D01*
X44092273Y-62498816D01*
X44119882Y-62511778D01*
X44211339Y-62554717D01*
X44250792Y-62560860D01*
X44312406Y-62570454D01*
X44312411Y-62570454D01*
X44315273Y-62570900D01*
X44386812Y-62570900D01*
X44425481Y-62565362D01*
X44482707Y-62557167D01*
X44482711Y-62557166D01*
X44488010Y-62556407D01*
X44492884Y-62554191D01*
X44492887Y-62554190D01*
X44576054Y-62516376D01*
X44612626Y-62499748D01*
X44669251Y-62450957D01*
X44712277Y-62413884D01*
X44712280Y-62413881D01*
X44716331Y-62410390D01*
X44722513Y-62400853D01*
X44787876Y-62300010D01*
X44787877Y-62300009D01*
X44790788Y-62295517D01*
X44830011Y-62164364D01*
X44830080Y-62153171D01*
X44830814Y-62032829D01*
X44830847Y-62027475D01*
X44793229Y-61895852D01*
X44720181Y-61780079D01*
X44617576Y-61689461D01*
X44612729Y-61687185D01*
X44612727Y-61687184D01*
X44592288Y-61677588D01*
X44574358Y-61669170D01*
X44538081Y-61632703D01*
X44533731Y-61581447D01*
X44563346Y-61539387D01*
X44606318Y-61525900D01*
X44923193Y-61525899D01*
X45054253Y-61525899D01*
X45102590Y-61543492D01*
X45128311Y-61588040D01*
X45119378Y-61638699D01*
X45113914Y-61646877D01*
X45104247Y-61659476D01*
X45083068Y-61687077D01*
X45081184Y-61691626D01*
X45051481Y-61763335D01*
X45027356Y-61821576D01*
X45008354Y-61965912D01*
X45027356Y-62110248D01*
X45029241Y-62114800D01*
X45029242Y-62114802D01*
X45047353Y-62158525D01*
X45083068Y-62244747D01*
X45086064Y-62248651D01*
X45086066Y-62248655D01*
X45153672Y-62336761D01*
X45171692Y-62360245D01*
X45175599Y-62363243D01*
X45178320Y-62365331D01*
X45287189Y-62448869D01*
X45312596Y-62459393D01*
X45417135Y-62502695D01*
X45417137Y-62502696D01*
X45421689Y-62504581D01*
X45566025Y-62523583D01*
X45710361Y-62504581D01*
X45714913Y-62502696D01*
X45714915Y-62502695D01*
X45819454Y-62459393D01*
X45844861Y-62448869D01*
X45953730Y-62365331D01*
X45956451Y-62363243D01*
X45960358Y-62360245D01*
X45966881Y-62351743D01*
X46010265Y-62324103D01*
X46061265Y-62330816D01*
X46086203Y-62351742D01*
X46095166Y-62363423D01*
X46095169Y-62363426D01*
X46098167Y-62367333D01*
X46102074Y-62370331D01*
X46128139Y-62390331D01*
X46213664Y-62455957D01*
X46254710Y-62472959D01*
X46343610Y-62509783D01*
X46343612Y-62509784D01*
X46348164Y-62511669D01*
X46492500Y-62530671D01*
X46636836Y-62511669D01*
X46641388Y-62509784D01*
X46641390Y-62509783D01*
X46730290Y-62472959D01*
X46771336Y-62455957D01*
X46856861Y-62390331D01*
X46882926Y-62370331D01*
X46886833Y-62367333D01*
X46890167Y-62362988D01*
X46890448Y-62362809D01*
X46893319Y-62359938D01*
X46893955Y-62360574D01*
X46933550Y-62335350D01*
X46984550Y-62342064D01*
X47009486Y-62362987D01*
X47028167Y-62387333D01*
X47032078Y-62390334D01*
X47032079Y-62390335D01*
X47118168Y-62456393D01*
X47143664Y-62475957D01*
X47192653Y-62496249D01*
X47273610Y-62529783D01*
X47273612Y-62529784D01*
X47278164Y-62531669D01*
X47422500Y-62550671D01*
X47566836Y-62531669D01*
X47571388Y-62529784D01*
X47571390Y-62529783D01*
X47652347Y-62496249D01*
X47701336Y-62475957D01*
X47816833Y-62387333D01*
X47826644Y-62374547D01*
X47870028Y-62346909D01*
X47921027Y-62353623D01*
X47945963Y-62374545D01*
X47959421Y-62392084D01*
X48074918Y-62480708D01*
X48126242Y-62501967D01*
X48204864Y-62534534D01*
X48204866Y-62534535D01*
X48209418Y-62536420D01*
X48353754Y-62555422D01*
X48498090Y-62536420D01*
X48502642Y-62534535D01*
X48502644Y-62534534D01*
X48581266Y-62501967D01*
X48632590Y-62480708D01*
X48748087Y-62392084D01*
X48754731Y-62383426D01*
X48779881Y-62350649D01*
X48823265Y-62323011D01*
X48874264Y-62329725D01*
X48899200Y-62350647D01*
X48908167Y-62362333D01*
X48912074Y-62365331D01*
X48954213Y-62397665D01*
X49023664Y-62450957D01*
X49076781Y-62472959D01*
X49153610Y-62504783D01*
X49153612Y-62504784D01*
X49158164Y-62506669D01*
X49302500Y-62525671D01*
X49446836Y-62506669D01*
X49451388Y-62504784D01*
X49451390Y-62504783D01*
X49528219Y-62472959D01*
X49581336Y-62450957D01*
X49659408Y-62391050D01*
X49708467Y-62375582D01*
X49755991Y-62395267D01*
X49762084Y-62401586D01*
X49764819Y-62405921D01*
X49768835Y-62409468D01*
X49768836Y-62409469D01*
X49823607Y-62457841D01*
X49867424Y-62496539D01*
X49872271Y-62498815D01*
X49872273Y-62498816D01*
X49899882Y-62511778D01*
X49991339Y-62554717D01*
X50030792Y-62560860D01*
X50092406Y-62570454D01*
X50092411Y-62570454D01*
X50095273Y-62570900D01*
X50166812Y-62570900D01*
X50205481Y-62565362D01*
X50262707Y-62557167D01*
X50262711Y-62557166D01*
X50268010Y-62556407D01*
X50272884Y-62554191D01*
X50272887Y-62554190D01*
X50356054Y-62516376D01*
X50392626Y-62499748D01*
X50449251Y-62450957D01*
X50492277Y-62413884D01*
X50492280Y-62413881D01*
X50496331Y-62410390D01*
X50502513Y-62400853D01*
X50567876Y-62300010D01*
X50567877Y-62300009D01*
X50570788Y-62295517D01*
X50610011Y-62164364D01*
X50610080Y-62153171D01*
X50610814Y-62032829D01*
X50610847Y-62027475D01*
X50573229Y-61895852D01*
X50500181Y-61780079D01*
X50397576Y-61689461D01*
X50392729Y-61687185D01*
X50392727Y-61687184D01*
X50306875Y-61646877D01*
X50273661Y-61631283D01*
X50227610Y-61624113D01*
X50172594Y-61615546D01*
X50172589Y-61615546D01*
X50169727Y-61615100D01*
X50168464Y-61615100D01*
X50121964Y-61593984D01*
X50099756Y-61547585D01*
X50099400Y-61540277D01*
X50099400Y-61511035D01*
X50112072Y-61469258D01*
X50136528Y-61432658D01*
X50145400Y-61388057D01*
X50145399Y-59907944D01*
X50136528Y-59863342D01*
X50102734Y-59812766D01*
X50061669Y-59785327D01*
X50058317Y-59783087D01*
X50058316Y-59783086D01*
X50052158Y-59778972D01*
X50007557Y-59770100D01*
X49692543Y-59770100D01*
X49377444Y-59770101D01*
X49332842Y-59778972D01*
X49319464Y-59787911D01*
X49309278Y-59794717D01*
X49259313Y-59806943D01*
X49225722Y-59794717D01*
X49215536Y-59787911D01*
X49202158Y-59778972D01*
X49157557Y-59770100D01*
X48992523Y-59770100D01*
X48827444Y-59770101D01*
X48802750Y-59775012D01*
X48790111Y-59777526D01*
X48790110Y-59777526D01*
X48782842Y-59778972D01*
X48776680Y-59783089D01*
X48771278Y-59785327D01*
X48719887Y-59787570D01*
X48713721Y-59785326D01*
X48708316Y-59783087D01*
X48702158Y-59778972D01*
X48657557Y-59770100D01*
X48492523Y-59770100D01*
X48327444Y-59770101D01*
X48302750Y-59775012D01*
X48290111Y-59777526D01*
X48290110Y-59777526D01*
X48282842Y-59778972D01*
X48276680Y-59783089D01*
X48271278Y-59785327D01*
X48219887Y-59787570D01*
X48213721Y-59785326D01*
X48208316Y-59783087D01*
X48202158Y-59778972D01*
X48157557Y-59770100D01*
X47992567Y-59770100D01*
X47827444Y-59770101D01*
X47823814Y-59770823D01*
X47821124Y-59771088D01*
X47771294Y-59758318D01*
X47741331Y-59716506D01*
X47739996Y-59710921D01*
X47733836Y-59679953D01*
X47741661Y-59629112D01*
X47780335Y-59595195D01*
X47807591Y-59590082D01*
X56618038Y-59590082D01*
X56637495Y-59592643D01*
X56648000Y-59595458D01*
X56657564Y-59592896D01*
X56667464Y-59592896D01*
X56667464Y-59593137D01*
X56676390Y-59592317D01*
X56837267Y-59604978D01*
X56848922Y-59606824D01*
X57027771Y-59649762D01*
X57038994Y-59653408D01*
X57208929Y-59723798D01*
X57219443Y-59729155D01*
X57376276Y-59825262D01*
X57385822Y-59832198D01*
X57525685Y-59951652D01*
X57534030Y-59959997D01*
X57554688Y-59984184D01*
X57639528Y-60083519D01*
X57653484Y-60099860D01*
X57660420Y-60109406D01*
X57756527Y-60266239D01*
X57761884Y-60276753D01*
X57832274Y-60446688D01*
X57835920Y-60457911D01*
X57878858Y-60636760D01*
X57880704Y-60648415D01*
X57893365Y-60809292D01*
X57892545Y-60818218D01*
X57892786Y-60818218D01*
X57892786Y-60828118D01*
X57890224Y-60837682D01*
X57893039Y-60848187D01*
X57895600Y-60867644D01*
X57895600Y-66072720D01*
X57893039Y-66092177D01*
X57890224Y-66102682D01*
X57892786Y-66112246D01*
X57892786Y-66122146D01*
X57892545Y-66122146D01*
X57893365Y-66131072D01*
X57880704Y-66291949D01*
X57878858Y-66303604D01*
X57835920Y-66482453D01*
X57832274Y-66493676D01*
X57761884Y-66663611D01*
X57756527Y-66674125D01*
X57660420Y-66830958D01*
X57653484Y-66840504D01*
X57534030Y-66980367D01*
X57525685Y-66988712D01*
X57385822Y-67108166D01*
X57376276Y-67115102D01*
X57219443Y-67211209D01*
X57208929Y-67216566D01*
X57038994Y-67286956D01*
X57027771Y-67290602D01*
X56848922Y-67333540D01*
X56837267Y-67335386D01*
X56676390Y-67348047D01*
X56667464Y-67347227D01*
X56667464Y-67347468D01*
X56657564Y-67347468D01*
X56648000Y-67344906D01*
X56637495Y-67347721D01*
X56618038Y-67350282D01*
X42498694Y-67350282D01*
X42450356Y-67332689D01*
X42424636Y-67288140D01*
X42433569Y-67237482D01*
X42439034Y-67229304D01*
X42472456Y-67185747D01*
X42472458Y-67185743D01*
X42475457Y-67181835D01*
X42531169Y-67047336D01*
X42550171Y-66903000D01*
X42531169Y-66758664D01*
X42527257Y-66749218D01*
X42477341Y-66628714D01*
X42475457Y-66624165D01*
X42472461Y-66620261D01*
X42472459Y-66620257D01*
X42389831Y-66512574D01*
X42386833Y-66508667D01*
X42271336Y-66420043D01*
X42162492Y-66374958D01*
X42141390Y-66366217D01*
X42141388Y-66366216D01*
X42136836Y-66364331D01*
X41992500Y-66345329D01*
X41848164Y-66364331D01*
X41843612Y-66366216D01*
X41843610Y-66366217D01*
X41799035Y-66384681D01*
X41713665Y-66420043D01*
X41709759Y-66423040D01*
X41709754Y-66423043D01*
X41707776Y-66424561D01*
X41706197Y-66425097D01*
X41705487Y-66425507D01*
X41705405Y-66425366D01*
X41661999Y-66440100D01*
X41435986Y-66440100D01*
X41387648Y-66422507D01*
X41367261Y-66395427D01*
X41356769Y-66371806D01*
X41353952Y-66365464D01*
X41280309Y-66291949D01*
X41279007Y-66290649D01*
X41279006Y-66290648D01*
X41274093Y-66285744D01*
X41267743Y-66282937D01*
X41267742Y-66282936D01*
X41203631Y-66254593D01*
X41170889Y-66240118D01*
X41147260Y-66237363D01*
X41147166Y-66237352D01*
X41147165Y-66237352D01*
X41145004Y-66237100D01*
X40029996Y-66237100D01*
X40027789Y-66237363D01*
X40027782Y-66237363D01*
X40009191Y-66239575D01*
X40009189Y-66239576D01*
X40003588Y-66240242D01*
X39900464Y-66286048D01*
X39872368Y-66314193D01*
X39826080Y-66360562D01*
X39820744Y-66365907D01*
X39817938Y-66372255D01*
X39817936Y-66372258D01*
X39813857Y-66381484D01*
X39775118Y-66469111D01*
X39772100Y-66494996D01*
X39772100Y-66885004D01*
X39775242Y-66911412D01*
X39821048Y-67014536D01*
X39849010Y-67042449D01*
X39895683Y-67089041D01*
X39900907Y-67094256D01*
X39907257Y-67097063D01*
X39907258Y-67097064D01*
X39941068Y-67112011D01*
X40004111Y-67139882D01*
X40009729Y-67140537D01*
X40027834Y-67142648D01*
X40027835Y-67142648D01*
X40029996Y-67142900D01*
X41145004Y-67142900D01*
X41147211Y-67142637D01*
X41147218Y-67142637D01*
X41165809Y-67140425D01*
X41165811Y-67140424D01*
X41171412Y-67139758D01*
X41274536Y-67093952D01*
X41335311Y-67033071D01*
X41381913Y-67011291D01*
X41431611Y-67024561D01*
X41458008Y-67057421D01*
X41509543Y-67181835D01*
X41512542Y-67185743D01*
X41512544Y-67185747D01*
X41545966Y-67229304D01*
X41561434Y-67278363D01*
X41541749Y-67325887D01*
X41496121Y-67349639D01*
X41486306Y-67350282D01*
X27478768Y-67350281D01*
X26711960Y-67350281D01*
X26692499Y-67347719D01*
X26681999Y-67344906D01*
X26672437Y-67347468D01*
X26662537Y-67347468D01*
X26662537Y-67347227D01*
X26653609Y-67348047D01*
X26492731Y-67335386D01*
X26481076Y-67333540D01*
X26302228Y-67290602D01*
X26291005Y-67286956D01*
X26121070Y-67216566D01*
X26110556Y-67211209D01*
X25953722Y-67115102D01*
X25944176Y-67108166D01*
X25930832Y-67096769D01*
X25804309Y-66988708D01*
X25795973Y-66980372D01*
X25676515Y-66840504D01*
X25669579Y-66830958D01*
X25573472Y-66674125D01*
X25568115Y-66663611D01*
X25497726Y-66493676D01*
X25494080Y-66482453D01*
X25451142Y-66303604D01*
X25449296Y-66291949D01*
X25436635Y-66131071D01*
X25437455Y-66122145D01*
X25437214Y-66122145D01*
X25437214Y-66112245D01*
X25439776Y-66102681D01*
X25436961Y-66092176D01*
X25434400Y-66072719D01*
X25434400Y-64010000D01*
X31082329Y-64010000D01*
X31101331Y-64154336D01*
X31103216Y-64158888D01*
X31103217Y-64158890D01*
X31125679Y-64213116D01*
X31157043Y-64288835D01*
X31160039Y-64292739D01*
X31160041Y-64292743D01*
X31217560Y-64367703D01*
X31233100Y-64413482D01*
X31233100Y-64419662D01*
X31226678Y-64450069D01*
X31192618Y-64527111D01*
X31189600Y-64552996D01*
X31189600Y-65893004D01*
X31192742Y-65919412D01*
X31238548Y-66022536D01*
X31264495Y-66048438D01*
X31313183Y-66097041D01*
X31318407Y-66102256D01*
X31324757Y-66105063D01*
X31324758Y-66105064D01*
X31358034Y-66119775D01*
X31421611Y-66147882D01*
X31427229Y-66148537D01*
X31445334Y-66150648D01*
X31445335Y-66150648D01*
X31447496Y-66150900D01*
X31837504Y-66150900D01*
X31839711Y-66150637D01*
X31839718Y-66150637D01*
X31858309Y-66148425D01*
X31858311Y-66148424D01*
X31863912Y-66147758D01*
X31967036Y-66101952D01*
X32010718Y-66058194D01*
X32041851Y-66027007D01*
X32041852Y-66027006D01*
X32046756Y-66022093D01*
X32055583Y-66002128D01*
X32073712Y-65961120D01*
X32109348Y-65924024D01*
X32160492Y-65918513D01*
X32203212Y-65947167D01*
X32211215Y-65961001D01*
X32229082Y-66001226D01*
X32238548Y-66022536D01*
X32264495Y-66048438D01*
X32313183Y-66097041D01*
X32318407Y-66102256D01*
X32333967Y-66109135D01*
X32341298Y-66112376D01*
X32378393Y-66148013D01*
X32386090Y-66181154D01*
X32386090Y-66182736D01*
X32384645Y-66190001D01*
X32386090Y-66197265D01*
X32386090Y-66197268D01*
X32386523Y-66199445D01*
X32387606Y-66206744D01*
X32399217Y-66324632D01*
X32400494Y-66337595D01*
X32401565Y-66341125D01*
X32401565Y-66341126D01*
X32416363Y-66389908D01*
X32443546Y-66479517D01*
X32513458Y-66610313D01*
X32515801Y-66613168D01*
X32515803Y-66613171D01*
X32605205Y-66722106D01*
X32607544Y-66724956D01*
X32610394Y-66727295D01*
X32719329Y-66816697D01*
X32719332Y-66816699D01*
X32722187Y-66819042D01*
X32852983Y-66888954D01*
X32908546Y-66905809D01*
X32944017Y-66916569D01*
X32994905Y-66932006D01*
X32998576Y-66932368D01*
X32998578Y-66932368D01*
X33125756Y-66944894D01*
X33133055Y-66945977D01*
X33135232Y-66946410D01*
X33135235Y-66946410D01*
X33142499Y-66947855D01*
X33160147Y-66944345D01*
X33174815Y-66942900D01*
X37465346Y-66942900D01*
X37513684Y-66960493D01*
X37534071Y-66987572D01*
X37546048Y-67014536D01*
X37574010Y-67042449D01*
X37620683Y-67089041D01*
X37625907Y-67094256D01*
X37632257Y-67097063D01*
X37632258Y-67097064D01*
X37666068Y-67112011D01*
X37729111Y-67139882D01*
X37734729Y-67140537D01*
X37752834Y-67142648D01*
X37752835Y-67142648D01*
X37754996Y-67142900D01*
X38870004Y-67142900D01*
X38872211Y-67142637D01*
X38872218Y-67142637D01*
X38890809Y-67140425D01*
X38890811Y-67140424D01*
X38896412Y-67139758D01*
X38999536Y-67093952D01*
X39046071Y-67047336D01*
X39074351Y-67019007D01*
X39074352Y-67019006D01*
X39079256Y-67014093D01*
X39090477Y-66988713D01*
X39107073Y-66951172D01*
X39124882Y-66910889D01*
X39127315Y-66890025D01*
X39127648Y-66887166D01*
X39127648Y-66887165D01*
X39127900Y-66885004D01*
X39127900Y-66494996D01*
X39126059Y-66479517D01*
X39125425Y-66474191D01*
X39125424Y-66474189D01*
X39124758Y-66468588D01*
X39078952Y-66365464D01*
X39005309Y-66291949D01*
X39004005Y-66290647D01*
X39004004Y-66290646D01*
X38999093Y-66285744D01*
X38994064Y-66283521D01*
X38964569Y-66242324D01*
X38968514Y-66191036D01*
X39004504Y-66154283D01*
X39036998Y-66146900D01*
X39184446Y-66146900D01*
X39209658Y-66138708D01*
X39221125Y-66135955D01*
X39247306Y-66131809D01*
X39252577Y-66129123D01*
X39252581Y-66129122D01*
X39270926Y-66119775D01*
X39281826Y-66115260D01*
X39301403Y-66108899D01*
X39307032Y-66107070D01*
X39328481Y-66091486D01*
X39338535Y-66085325D01*
X39356872Y-66075982D01*
X39356873Y-66075981D01*
X39362151Y-66073292D01*
X39453292Y-65982151D01*
X39829446Y-65605998D01*
X39829449Y-65605994D01*
X39852372Y-65583071D01*
X39864404Y-65559457D01*
X39870570Y-65549396D01*
X39882670Y-65532741D01*
X39882671Y-65532739D01*
X39886149Y-65527952D01*
X39894339Y-65502744D01*
X39898856Y-65491841D01*
X39908202Y-65473500D01*
X39908203Y-65473498D01*
X39910889Y-65468226D01*
X39915036Y-65442045D01*
X39917790Y-65430573D01*
X39924151Y-65410993D01*
X39925979Y-65405367D01*
X39925979Y-65372950D01*
X39925980Y-65372944D01*
X39925980Y-65315250D01*
X39943573Y-65266912D01*
X39988122Y-65241192D01*
X40009888Y-65240556D01*
X40027832Y-65242648D01*
X40027837Y-65242648D01*
X40029996Y-65242900D01*
X41145004Y-65242900D01*
X41147211Y-65242637D01*
X41147218Y-65242637D01*
X41165809Y-65240425D01*
X41165811Y-65240424D01*
X41171412Y-65239758D01*
X41274536Y-65193952D01*
X41321561Y-65146845D01*
X41349351Y-65119007D01*
X41349352Y-65119006D01*
X41354256Y-65114093D01*
X41364601Y-65090693D01*
X41400237Y-65053597D01*
X41433379Y-65045900D01*
X41600184Y-65045900D01*
X41614852Y-65047345D01*
X41632500Y-65050855D01*
X41639765Y-65049410D01*
X41723914Y-65032672D01*
X41723915Y-65032671D01*
X41731177Y-65031227D01*
X41787215Y-64993784D01*
X41838809Y-64981754D01*
X41977616Y-65000028D01*
X41982500Y-65000671D01*
X42126836Y-64981669D01*
X42131388Y-64979784D01*
X42131390Y-64979783D01*
X42201458Y-64950759D01*
X42261336Y-64925957D01*
X42376833Y-64837333D01*
X42424641Y-64775028D01*
X42462459Y-64725743D01*
X42462461Y-64725739D01*
X42465457Y-64721835D01*
X42518416Y-64593982D01*
X42519283Y-64591890D01*
X42519284Y-64591888D01*
X42521169Y-64587336D01*
X42540171Y-64443000D01*
X42521169Y-64298664D01*
X42518717Y-64292743D01*
X42490394Y-64224368D01*
X42487756Y-64218000D01*
X52769829Y-64218000D01*
X52788831Y-64362336D01*
X52790716Y-64366888D01*
X52790717Y-64366890D01*
X52812715Y-64419997D01*
X52844543Y-64496835D01*
X52847539Y-64500739D01*
X52847541Y-64500743D01*
X52918434Y-64593132D01*
X52933167Y-64612333D01*
X53048664Y-64700957D01*
X53099068Y-64721835D01*
X53178610Y-64754783D01*
X53178612Y-64754784D01*
X53183164Y-64756669D01*
X53327500Y-64775671D01*
X53471836Y-64756669D01*
X53476388Y-64754784D01*
X53476390Y-64754783D01*
X53555932Y-64721835D01*
X53606336Y-64700957D01*
X53721833Y-64612333D01*
X53736566Y-64593132D01*
X53807459Y-64500743D01*
X53807461Y-64500739D01*
X53810457Y-64496835D01*
X53842285Y-64419997D01*
X53864283Y-64366890D01*
X53864284Y-64366888D01*
X53866169Y-64362336D01*
X53885171Y-64218000D01*
X53866169Y-64073664D01*
X53810457Y-63939165D01*
X53807461Y-63935261D01*
X53807459Y-63935257D01*
X53724831Y-63827574D01*
X53721833Y-63823667D01*
X53635727Y-63757596D01*
X53608090Y-63714214D01*
X53606307Y-63698095D01*
X53606146Y-63621125D01*
X53600905Y-61127667D01*
X53618397Y-61079293D01*
X53622879Y-61074387D01*
X53661738Y-61035460D01*
X53691760Y-61005385D01*
X53691761Y-61005384D01*
X53696665Y-61000471D01*
X53740031Y-60902379D01*
X53742900Y-60877772D01*
X53742900Y-60422228D01*
X53739913Y-60397124D01*
X53696376Y-60299107D01*
X53691465Y-60294205D01*
X53691464Y-60294203D01*
X53625385Y-60228240D01*
X53625384Y-60228239D01*
X53620471Y-60223335D01*
X53614121Y-60220528D01*
X53614120Y-60220527D01*
X53560719Y-60196919D01*
X53522379Y-60179969D01*
X53500028Y-60177363D01*
X53499934Y-60177352D01*
X53499933Y-60177352D01*
X53497772Y-60177100D01*
X53142228Y-60177100D01*
X53140021Y-60177363D01*
X53140014Y-60177363D01*
X53123852Y-60179287D01*
X53117124Y-60180087D01*
X53019107Y-60223624D01*
X53014205Y-60228535D01*
X53014203Y-60228536D01*
X52948240Y-60294615D01*
X52943335Y-60299529D01*
X52899969Y-60397621D01*
X52897100Y-60422228D01*
X52897100Y-60877772D01*
X52897363Y-60879979D01*
X52897363Y-60879986D01*
X52897934Y-60884780D01*
X52900087Y-60902876D01*
X52943624Y-61000893D01*
X52948534Y-61005795D01*
X52948538Y-61005800D01*
X53019034Y-61076171D01*
X53040815Y-61122772D01*
X53041107Y-61129223D01*
X53046331Y-63614879D01*
X53046509Y-63699454D01*
X53029017Y-63747828D01*
X53017088Y-63759272D01*
X52933167Y-63823667D01*
X52930169Y-63827574D01*
X52847541Y-63935257D01*
X52847539Y-63935261D01*
X52844543Y-63939165D01*
X52788831Y-64073664D01*
X52769829Y-64218000D01*
X42487756Y-64218000D01*
X42465457Y-64164165D01*
X42462461Y-64160261D01*
X42462459Y-64160257D01*
X42379831Y-64052574D01*
X42376833Y-64048667D01*
X42261336Y-63960043D01*
X42201458Y-63935241D01*
X42131390Y-63906217D01*
X42131388Y-63906216D01*
X42126836Y-63904331D01*
X41982500Y-63885329D01*
X41838164Y-63904331D01*
X41833612Y-63906216D01*
X41833610Y-63906217D01*
X41763868Y-63935106D01*
X41703665Y-63960043D01*
X41699761Y-63963039D01*
X41699757Y-63963041D01*
X41638559Y-64010000D01*
X41588167Y-64048667D01*
X41585169Y-64052574D01*
X41502541Y-64160257D01*
X41502539Y-64160261D01*
X41499543Y-64164165D01*
X41474606Y-64224368D01*
X41446284Y-64292743D01*
X41443831Y-64298664D01*
X41443188Y-64303551D01*
X41433864Y-64374370D01*
X41410111Y-64419997D01*
X41362587Y-64439682D01*
X41313528Y-64424214D01*
X41306185Y-64417780D01*
X41274093Y-64385744D01*
X41267743Y-64382937D01*
X41267742Y-64382936D01*
X41179091Y-64343744D01*
X41170889Y-64340118D01*
X41147260Y-64337363D01*
X41147166Y-64337352D01*
X41147165Y-64337352D01*
X41145004Y-64337100D01*
X40090067Y-64337100D01*
X40041729Y-64319507D01*
X40016009Y-64274958D01*
X40020591Y-64233122D01*
X40055863Y-64147970D01*
X40055864Y-64147968D01*
X40057749Y-64143416D01*
X40076751Y-63999080D01*
X40057749Y-63854744D01*
X40044877Y-63823667D01*
X40017509Y-63757597D01*
X40002037Y-63720245D01*
X39999041Y-63716341D01*
X39999039Y-63716337D01*
X39941520Y-63641377D01*
X39925980Y-63595598D01*
X39925980Y-63590329D01*
X39943573Y-63541991D01*
X39968037Y-63522826D01*
X40003088Y-63505617D01*
X40007475Y-63501223D01*
X40007477Y-63501221D01*
X40086107Y-63422453D01*
X40086108Y-63422452D01*
X40090500Y-63418052D01*
X40093229Y-63412468D01*
X40093231Y-63412466D01*
X40142273Y-63312135D01*
X40144835Y-63306894D01*
X40150511Y-63267986D01*
X40155006Y-63237179D01*
X40155006Y-63237174D01*
X40155400Y-63234476D01*
X40155400Y-63043000D01*
X40494829Y-63043000D01*
X40513831Y-63187336D01*
X40515716Y-63191888D01*
X40515717Y-63191890D01*
X40544606Y-63261632D01*
X40569543Y-63321835D01*
X40572539Y-63325739D01*
X40572541Y-63325743D01*
X40644447Y-63419453D01*
X40658167Y-63437333D01*
X40773664Y-63525957D01*
X40815956Y-63543475D01*
X40903610Y-63579783D01*
X40903612Y-63579784D01*
X40908164Y-63581669D01*
X41052500Y-63600671D01*
X41196836Y-63581669D01*
X41201388Y-63579784D01*
X41201390Y-63579783D01*
X41289044Y-63543475D01*
X41331336Y-63525957D01*
X41446833Y-63437333D01*
X41460553Y-63419453D01*
X41532459Y-63325743D01*
X41532461Y-63325739D01*
X41535457Y-63321835D01*
X41560394Y-63261632D01*
X41589283Y-63191890D01*
X41589284Y-63191888D01*
X41591169Y-63187336D01*
X41610171Y-63043000D01*
X41591169Y-62898664D01*
X41535457Y-62764165D01*
X41532461Y-62760261D01*
X41532459Y-62760257D01*
X41449831Y-62652574D01*
X41446833Y-62648667D01*
X41442925Y-62645668D01*
X41415424Y-62624565D01*
X41387786Y-62581181D01*
X41394501Y-62530181D01*
X41407983Y-62511778D01*
X41474260Y-62445385D01*
X41474261Y-62445384D01*
X41479165Y-62440471D01*
X41494440Y-62405921D01*
X41513226Y-62363426D01*
X41522531Y-62342379D01*
X41525400Y-62317772D01*
X41525400Y-61962228D01*
X41522413Y-61937124D01*
X41478876Y-61839107D01*
X41473965Y-61834205D01*
X41473964Y-61834203D01*
X41407885Y-61768240D01*
X41407884Y-61768239D01*
X41402971Y-61763335D01*
X41396621Y-61760528D01*
X41396620Y-61760527D01*
X41310054Y-61722257D01*
X41310055Y-61722257D01*
X41304879Y-61719969D01*
X41282528Y-61717363D01*
X41282434Y-61717352D01*
X41282433Y-61717352D01*
X41280272Y-61717100D01*
X40824728Y-61717100D01*
X40822521Y-61717363D01*
X40822514Y-61717363D01*
X40806352Y-61719287D01*
X40799624Y-61720087D01*
X40701607Y-61763624D01*
X40696705Y-61768535D01*
X40696703Y-61768536D01*
X40630740Y-61834615D01*
X40625835Y-61839529D01*
X40582469Y-61937621D01*
X40579600Y-61962228D01*
X40579600Y-62317772D01*
X40579863Y-62319979D01*
X40579863Y-62319986D01*
X40581787Y-62336148D01*
X40582587Y-62342876D01*
X40626124Y-62440893D01*
X40631035Y-62445795D01*
X40631036Y-62445797D01*
X40696990Y-62511635D01*
X40718770Y-62558236D01*
X40705500Y-62607935D01*
X40689641Y-62624516D01*
X40662645Y-62645231D01*
X40658167Y-62648667D01*
X40655169Y-62652574D01*
X40572541Y-62760257D01*
X40572539Y-62760261D01*
X40569543Y-62764165D01*
X40513831Y-62898664D01*
X40494829Y-63043000D01*
X40155400Y-63043000D01*
X40155400Y-62726524D01*
X40154959Y-62723524D01*
X40145498Y-62659258D01*
X40144647Y-62653476D01*
X40140814Y-62645669D01*
X40092855Y-62547988D01*
X40092854Y-62547987D01*
X40090117Y-62542412D01*
X40085723Y-62538025D01*
X40085721Y-62538023D01*
X40006953Y-62459393D01*
X40006952Y-62459392D01*
X40002552Y-62455000D01*
X39996968Y-62452271D01*
X39996966Y-62452269D01*
X39909397Y-62409465D01*
X39891394Y-62400665D01*
X39852486Y-62394989D01*
X39821679Y-62390494D01*
X39821674Y-62390494D01*
X39818976Y-62390100D01*
X39236024Y-62390100D01*
X39233308Y-62390500D01*
X39233305Y-62390500D01*
X39202180Y-62395082D01*
X39162976Y-62400853D01*
X39157732Y-62403428D01*
X39157731Y-62403428D01*
X39057488Y-62452645D01*
X39057487Y-62452646D01*
X39051912Y-62455383D01*
X39047525Y-62459777D01*
X39047523Y-62459779D01*
X38969416Y-62538023D01*
X38964500Y-62542948D01*
X38961771Y-62548532D01*
X38961769Y-62548534D01*
X38944279Y-62584315D01*
X38910165Y-62654106D01*
X38909323Y-62659880D01*
X38899997Y-62723805D01*
X38899600Y-62726524D01*
X38899600Y-63234476D01*
X38910353Y-63307524D01*
X38912928Y-63312768D01*
X38912928Y-63312769D01*
X38950588Y-63389472D01*
X38964883Y-63418588D01*
X38969277Y-63422975D01*
X38969279Y-63422977D01*
X38986664Y-63440331D01*
X39052448Y-63506000D01*
X39070005Y-63514582D01*
X39105705Y-63551615D01*
X39112180Y-63582142D01*
X39112180Y-63595598D01*
X39096640Y-63641377D01*
X39039121Y-63716337D01*
X39039119Y-63716341D01*
X39036123Y-63720245D01*
X39020651Y-63757597D01*
X38993284Y-63823667D01*
X38980411Y-63854744D01*
X38961409Y-63999080D01*
X38980411Y-64143416D01*
X38982296Y-64147968D01*
X38982297Y-64147970D01*
X39027242Y-64256475D01*
X39029486Y-64307866D01*
X38998171Y-64348676D01*
X38947951Y-64359810D01*
X38927361Y-64354031D01*
X38895889Y-64340118D01*
X38872260Y-64337363D01*
X38872166Y-64337352D01*
X38872165Y-64337352D01*
X38870004Y-64337100D01*
X37754996Y-64337100D01*
X37752789Y-64337363D01*
X37752782Y-64337363D01*
X37734191Y-64339575D01*
X37734189Y-64339576D01*
X37728588Y-64340242D01*
X37625464Y-64386048D01*
X37620562Y-64390959D01*
X37563736Y-64447884D01*
X37545744Y-64465907D01*
X37534072Y-64492308D01*
X37498438Y-64529402D01*
X37465295Y-64537100D01*
X37412316Y-64537100D01*
X37397648Y-64535655D01*
X37380000Y-64532145D01*
X37372737Y-64533590D01*
X37372261Y-64533590D01*
X37365818Y-64534510D01*
X37301926Y-64540100D01*
X37205183Y-64548564D01*
X37069059Y-64585038D01*
X37043486Y-64591890D01*
X37035678Y-64593982D01*
X36876635Y-64668145D01*
X36732886Y-64768799D01*
X36608799Y-64892886D01*
X36508145Y-65036635D01*
X36433982Y-65195678D01*
X36388564Y-65365183D01*
X36387884Y-65372956D01*
X36374510Y-65525818D01*
X36373590Y-65532261D01*
X36373590Y-65532737D01*
X36372145Y-65540000D01*
X36373590Y-65547264D01*
X36375655Y-65557645D01*
X36377100Y-65572316D01*
X36377100Y-65581164D01*
X36375655Y-65595832D01*
X36372145Y-65613480D01*
X36373590Y-65620745D01*
X36373590Y-65628149D01*
X36373458Y-65628149D01*
X36373999Y-65641002D01*
X36365586Y-65715674D01*
X36361839Y-65732090D01*
X36342172Y-65788297D01*
X36330670Y-65821168D01*
X36323363Y-65836340D01*
X36273155Y-65916244D01*
X36262656Y-65929409D01*
X36195929Y-65996136D01*
X36182764Y-66006635D01*
X36102860Y-66056843D01*
X36087689Y-66064150D01*
X35998610Y-66095319D01*
X35982196Y-66099066D01*
X35907521Y-66107479D01*
X35894669Y-66106938D01*
X35894669Y-66107070D01*
X35887265Y-66107070D01*
X35880000Y-66105625D01*
X35862352Y-66109135D01*
X35847684Y-66110580D01*
X35123103Y-66110580D01*
X35074765Y-66092987D01*
X35049045Y-66048438D01*
X35054324Y-66004974D01*
X35064414Y-65982151D01*
X35092382Y-65918889D01*
X35095400Y-65893004D01*
X35095400Y-64552996D01*
X35092258Y-64526588D01*
X35057299Y-64447884D01*
X35053375Y-64439050D01*
X35046900Y-64408523D01*
X35046900Y-64015441D01*
X35047826Y-64003677D01*
X35051046Y-63983347D01*
X35051972Y-63977500D01*
X35051046Y-63971654D01*
X35051046Y-63971650D01*
X35050602Y-63968846D01*
X35050149Y-63948665D01*
X35058950Y-63870551D01*
X35060821Y-63853941D01*
X35064568Y-63837525D01*
X35102836Y-63728162D01*
X35110142Y-63712990D01*
X35155139Y-63641377D01*
X35171790Y-63614878D01*
X35182289Y-63601714D01*
X35264214Y-63519789D01*
X35277379Y-63509289D01*
X35282614Y-63506000D01*
X35375491Y-63447642D01*
X35390662Y-63440336D01*
X35440271Y-63422977D01*
X35500027Y-63402067D01*
X35516441Y-63398321D01*
X35545433Y-63395055D01*
X35611165Y-63387649D01*
X35631346Y-63388102D01*
X35634150Y-63388546D01*
X35634154Y-63388546D01*
X35640000Y-63389472D01*
X35666178Y-63385326D01*
X35677941Y-63384400D01*
X37307662Y-63384400D01*
X37356000Y-63401993D01*
X37366022Y-63412817D01*
X37367383Y-63415588D01*
X37371782Y-63419979D01*
X37450161Y-63498221D01*
X37454948Y-63503000D01*
X37460532Y-63505729D01*
X37460534Y-63505731D01*
X37505767Y-63527841D01*
X37566106Y-63557335D01*
X37605014Y-63563011D01*
X37635821Y-63567506D01*
X37635826Y-63567506D01*
X37638524Y-63567900D01*
X38221476Y-63567900D01*
X38224192Y-63567500D01*
X38224195Y-63567500D01*
X38265862Y-63561366D01*
X38294524Y-63557147D01*
X38299769Y-63554572D01*
X38400012Y-63505355D01*
X38400013Y-63505354D01*
X38405588Y-63502617D01*
X38409975Y-63498223D01*
X38409977Y-63498221D01*
X38488607Y-63419453D01*
X38488608Y-63419452D01*
X38493000Y-63415052D01*
X38495729Y-63409468D01*
X38495731Y-63409466D01*
X38544773Y-63309135D01*
X38547335Y-63303894D01*
X38557068Y-63237179D01*
X38557506Y-63234179D01*
X38557506Y-63234174D01*
X38557900Y-63231476D01*
X38557900Y-62723524D01*
X38547147Y-62650476D01*
X38539706Y-62635321D01*
X38495355Y-62544988D01*
X38495354Y-62544987D01*
X38492617Y-62539412D01*
X38488223Y-62535025D01*
X38488221Y-62535023D01*
X38409453Y-62456393D01*
X38409452Y-62456392D01*
X38405052Y-62452000D01*
X38399468Y-62449271D01*
X38399466Y-62449269D01*
X38319927Y-62410390D01*
X38293894Y-62397665D01*
X38254986Y-62391989D01*
X38224179Y-62387494D01*
X38224174Y-62387494D01*
X38221476Y-62387100D01*
X37638524Y-62387100D01*
X37635808Y-62387500D01*
X37635805Y-62387500D01*
X37604666Y-62392084D01*
X37565476Y-62397853D01*
X37560232Y-62400428D01*
X37560231Y-62400428D01*
X37459988Y-62449645D01*
X37459987Y-62449646D01*
X37454412Y-62452383D01*
X37450025Y-62456777D01*
X37450023Y-62456779D01*
X37371916Y-62535023D01*
X37367000Y-62539948D01*
X37366695Y-62540571D01*
X37326488Y-62568205D01*
X37307659Y-62570600D01*
X35677941Y-62570600D01*
X35666177Y-62569674D01*
X35645847Y-62566454D01*
X35640000Y-62565528D01*
X35633842Y-62566503D01*
X35628003Y-62567194D01*
X35488160Y-62578200D01*
X35422178Y-62583393D01*
X35422176Y-62583393D01*
X35419232Y-62583625D01*
X35416358Y-62584315D01*
X35206781Y-62634629D01*
X35206777Y-62634630D01*
X35203900Y-62635321D01*
X35201171Y-62636451D01*
X35201166Y-62636453D01*
X35002029Y-62718939D01*
X34999306Y-62720067D01*
X34810488Y-62835774D01*
X34642095Y-62979595D01*
X34498274Y-63147988D01*
X34382567Y-63336806D01*
X34381439Y-63339528D01*
X34381439Y-63339529D01*
X34303768Y-63527043D01*
X34297821Y-63541400D01*
X34297130Y-63544277D01*
X34297129Y-63544281D01*
X34255823Y-63716337D01*
X34246125Y-63756732D01*
X34231020Y-63948665D01*
X34229695Y-63965495D01*
X34229003Y-63971342D01*
X34228028Y-63977500D01*
X34228954Y-63983347D01*
X34232174Y-64003677D01*
X34233100Y-64015441D01*
X34233100Y-64419662D01*
X34226678Y-64450069D01*
X34211288Y-64484880D01*
X34175652Y-64521976D01*
X34124508Y-64527487D01*
X34081788Y-64498833D01*
X34073785Y-64484999D01*
X34049270Y-64429808D01*
X34046452Y-64423464D01*
X33999942Y-64377035D01*
X33971507Y-64348649D01*
X33971506Y-64348648D01*
X33966593Y-64343744D01*
X33960243Y-64340937D01*
X33960242Y-64340936D01*
X33903672Y-64315927D01*
X33863389Y-64298118D01*
X33839760Y-64295363D01*
X33839666Y-64295352D01*
X33839665Y-64295352D01*
X33837504Y-64295100D01*
X33447496Y-64295100D01*
X33445289Y-64295363D01*
X33445282Y-64295363D01*
X33426691Y-64297575D01*
X33426689Y-64297576D01*
X33421088Y-64298242D01*
X33317964Y-64344048D01*
X33279144Y-64382936D01*
X33243580Y-64418562D01*
X33238244Y-64423907D01*
X33235437Y-64430257D01*
X33235436Y-64430258D01*
X33211288Y-64484880D01*
X33175652Y-64521976D01*
X33124508Y-64527487D01*
X33081788Y-64498833D01*
X33073785Y-64484999D01*
X33049270Y-64429808D01*
X33046452Y-64423464D01*
X32999942Y-64377035D01*
X32971507Y-64348649D01*
X32971506Y-64348648D01*
X32966593Y-64343744D01*
X32960243Y-64340937D01*
X32960242Y-64340936D01*
X32903672Y-64315927D01*
X32863389Y-64298118D01*
X32839760Y-64295363D01*
X32839666Y-64295352D01*
X32839665Y-64295352D01*
X32837504Y-64295100D01*
X32447496Y-64295100D01*
X32445289Y-64295363D01*
X32445282Y-64295363D01*
X32426691Y-64297575D01*
X32426689Y-64297576D01*
X32421088Y-64298242D01*
X32317964Y-64344048D01*
X32279144Y-64382936D01*
X32243580Y-64418562D01*
X32238244Y-64423907D01*
X32235437Y-64430257D01*
X32235436Y-64430258D01*
X32211288Y-64484880D01*
X32175652Y-64521976D01*
X32124508Y-64527487D01*
X32081788Y-64498833D01*
X32073785Y-64485000D01*
X32065108Y-64465464D01*
X32054770Y-64442191D01*
X32051226Y-64390873D01*
X32063835Y-64365885D01*
X32119959Y-64292743D01*
X32119961Y-64292739D01*
X32122957Y-64288835D01*
X32154321Y-64213116D01*
X32176783Y-64158890D01*
X32176784Y-64158888D01*
X32178669Y-64154336D01*
X32197671Y-64010000D01*
X32178669Y-63865664D01*
X32172260Y-63850190D01*
X32147894Y-63791368D01*
X32122957Y-63731165D01*
X32119961Y-63727261D01*
X32119959Y-63727257D01*
X32037331Y-63619574D01*
X32034333Y-63615667D01*
X31918836Y-63527043D01*
X31857433Y-63501609D01*
X31788890Y-63473217D01*
X31788888Y-63473216D01*
X31784336Y-63471331D01*
X31640000Y-63452329D01*
X31495664Y-63471331D01*
X31491112Y-63473216D01*
X31491110Y-63473217D01*
X31429815Y-63498607D01*
X31361165Y-63527043D01*
X31357261Y-63530039D01*
X31357257Y-63530041D01*
X31266048Y-63600028D01*
X31245667Y-63615667D01*
X31242669Y-63619574D01*
X31160041Y-63727257D01*
X31160039Y-63727261D01*
X31157043Y-63731165D01*
X31132106Y-63791368D01*
X31107741Y-63850190D01*
X31101331Y-63865664D01*
X31082329Y-64010000D01*
X25434400Y-64010000D01*
X25434400Y-60867644D01*
X25436961Y-60848187D01*
X25439776Y-60837682D01*
X25437214Y-60828118D01*
X25437214Y-60818218D01*
X25437455Y-60818218D01*
X25436635Y-60809292D01*
X25449296Y-60648415D01*
X25451142Y-60636760D01*
X25494080Y-60457911D01*
X25497726Y-60446688D01*
X25568116Y-60276753D01*
X25573473Y-60266239D01*
X25669580Y-60109406D01*
X25676516Y-60099860D01*
X25690473Y-60083519D01*
X25775312Y-59984184D01*
X25795970Y-59959997D01*
X25804315Y-59951652D01*
X25944178Y-59832198D01*
X25953724Y-59825262D01*
X26110557Y-59729155D01*
X26121071Y-59723798D01*
X26291006Y-59653408D01*
X26302229Y-59649762D01*
X26481078Y-59606824D01*
X26492733Y-59604978D01*
X26653610Y-59592317D01*
X26662536Y-59593137D01*
X26662536Y-59592896D01*
X26672436Y-59592896D01*
X26682000Y-59595458D01*
X26692505Y-59592643D01*
X26711962Y-59590082D01*
X39863817Y-59590082D01*
X39912155Y-59607675D01*
G37*
%TD.AperFunction*%
%TD*%
M02*
